<svg width="1870" height="557" viewBox="0 0 1870 557" fill="none" xmlns="http://www.w3.org/2000/svg">
<path d="M374.833 379.243H407.955V440.942H408.507C413.254 429.904 423.191 420.357 444.663 421.296C454.08 421.218 463.308 423.942 471.174 429.121C479.036 434.301 485.181 441.699 488.829 450.378C494.584 462.49 497.453 475.77 497.205 489.179C496.957 502.584 493.595 515.754 487.395 527.639C477.456 548.887 464.207 558.104 441.075 557.167C434.575 556.906 428.224 555.099 422.56 551.892C416.895 548.685 412.077 544.173 408.507 538.731H407.955V551.481H374.833V379.243ZM413.475 464.562C409.732 472.384 407.789 480.946 407.789 489.616C407.789 498.29 409.732 506.848 413.475 514.67C415.36 518.956 418.452 522.599 422.373 525.155C426.294 527.716 430.875 529.077 435.555 529.077C440.24 529.077 444.818 527.716 448.74 525.155C452.662 522.599 455.754 518.956 457.638 514.67C461.381 506.848 463.325 498.29 463.325 489.616C463.325 480.946 461.381 472.384 457.638 464.562C455.754 460.276 452.662 456.633 448.74 454.077C444.818 451.521 440.24 450.155 435.555 450.155C430.875 450.155 426.294 451.521 422.373 454.077C418.452 456.633 415.36 460.276 413.475 464.562Z" fill="#6E6E76"/>
<path d="M594.212 551.481C591.647 547.739 590.388 543.261 590.624 538.731C579.032 549.769 568.875 556.944 549.498 556.944C523.497 556.944 510.856 542.264 511.683 517.488C512.402 499.549 519.523 482.055 548.779 477.089C560.024 476.528 571.153 474.542 581.901 471.185C584.676 470.033 586.992 467.996 588.491 465.388C589.99 462.785 590.581 459.758 590.183 456.783C590.183 448.725 583.558 445.193 568.434 445.193C549.554 445.193 547.177 456.783 546.681 465.996H515.712C516.209 425.103 551.155 421.296 568.652 421.296C578.938 421.071 589.181 422.678 598.905 426.042C611.657 431.228 621.815 441.661 621.815 461.967V531.89C621.904 534.801 622.62 537.661 623.917 540.269C625.215 542.88 627.056 545.179 629.321 547.012V551.481H594.212ZM536.027 378.802H562.028V407.609H536.027V378.802ZM590.679 491.162C581.241 496.68 568.596 496.351 559.929 498.003C557.514 498.2 555.168 498.919 553.061 500.118C550.954 501.321 549.134 502.965 547.734 504.948C546.334 506.926 545.383 509.19 544.955 511.575C544.527 513.96 544.625 516.413 545.246 518.755C547.177 526.316 553.087 531.723 567.329 529.351C586.98 526.316 590.512 512.795 590.512 498.393L590.679 491.162ZM606.3 378.691V407.499H580.299V378.802L606.3 378.691Z" fill="#6E6E76"/>
<path d="M765.565 552.2H732.443V538.731H732.002C728.422 544.113 723.622 548.566 717.987 551.729C712.356 554.898 706.052 556.683 699.595 556.944C676.412 557.882 663.218 548.668 653.28 527.42C647.867 516.216 644.574 504.113 643.563 491.714C643.037 477.474 645.872 463.316 651.845 450.378C655.489 441.699 661.638 434.301 669.5 429.121C677.366 423.942 686.59 421.218 696.007 421.296C717.481 420.357 727.42 430.071 732.165 440.942H732.61V379.243H765.732L765.565 552.2ZM682.758 464.339C679.015 472.153 677.075 480.707 677.075 489.368C677.075 498.029 679.015 506.583 682.758 514.396C684.646 518.678 687.738 522.321 691.656 524.881C695.578 527.437 700.16 528.799 704.841 528.799C709.521 528.799 714.103 527.437 718.025 524.881C721.943 522.321 725.035 518.678 726.923 514.396C730.666 506.583 732.606 498.029 732.606 489.368C732.606 480.707 730.666 472.153 726.923 464.339C725.056 460.036 721.969 456.372 718.047 453.799C714.124 451.225 709.534 449.855 704.841 449.855C700.147 449.855 695.557 451.225 691.635 453.799C687.712 456.372 684.625 460.036 682.758 464.339Z" fill="#6E6E76"/>
<path d="M819.884 497.896C818.522 505.003 819.965 512.359 823.913 518.425C826.962 522.814 831.219 526.226 836.165 528.242C841.115 530.263 846.544 530.798 851.794 529.792C861.232 527.861 869.291 521.957 870.948 515.334H903.574C898.054 540.166 867.638 556.944 845.17 556.944C833.441 556.846 821.969 553.481 812.048 547.23C801.107 540.029 792.992 529.265 789.083 516.768C787.978 511.635 787.203 506.437 786.762 501.206C786.107 491.992 786.496 482.736 787.922 473.613C796.204 423.503 830.928 421.13 845.611 421.13C855.246 420.758 864.812 422.916 873.355 427.389C881.898 431.861 889.117 438.497 894.299 446.627C905.839 465.281 905.839 482.496 905.342 497.896H819.884ZM870.726 475.822C870.726 466.163 867.415 450.048 847.542 449.111C843.902 448.738 840.224 449.166 836.768 450.365C833.313 451.564 830.157 453.503 827.528 456.051C824.898 458.594 822.86 461.681 821.545 465.097C820.235 468.509 819.687 472.17 819.94 475.822H870.726Z" fill="#6E6E76"/>
<path d="M927.421 423.448H960.543V448.28H960.984C963.138 440.668 964.795 436.198 976.387 428.192C979.611 425.432 983.384 423.388 987.456 422.198C991.532 421.009 995.81 420.701 1000.02 421.296V455.126C985.829 453.469 964.517 451.538 960.543 479.461V551.481H927.421V423.448Z" fill="#6E6E76"/>
<path d="M1018.45 379.243H1051.58V440.942H1052.07C1056.76 429.904 1066.7 420.357 1088.23 421.296C1097.65 421.211 1106.88 423.932 1114.74 429.112C1122.61 434.293 1128.75 441.695 1132.39 450.378C1138.16 462.485 1141.04 475.77 1140.79 489.179C1140.54 502.588 1137.17 515.754 1130.96 527.639C1121.02 548.887 1107.83 558.104 1084.64 557.167C1078.19 556.91 1071.89 555.125 1066.27 551.956C1060.65 548.792 1055.85 544.336 1052.29 538.954H1051.79V551.704H1018.67L1018.45 379.243ZM1057.1 464.562C1053.35 472.384 1051.41 480.946 1051.41 489.616C1051.41 498.29 1053.35 506.848 1057.1 514.67C1058.98 518.956 1062.07 522.599 1065.99 525.155C1069.91 527.716 1074.49 529.077 1079.17 529.077C1083.86 529.077 1088.44 527.716 1092.36 525.155C1096.28 522.599 1099.37 518.956 1101.26 514.67C1105 506.848 1106.94 498.29 1106.94 489.616C1106.94 480.946 1105 472.384 1101.26 464.562C1099.37 460.276 1096.28 456.633 1092.36 454.077C1088.44 451.521 1083.86 450.155 1079.17 450.155C1074.49 450.155 1069.91 451.521 1065.99 454.077C1062.07 456.633 1058.98 460.276 1057.1 464.562Z" fill="#6E6E76"/>
<path d="M1237.78 551.482C1235.21 547.74 1233.95 543.261 1234.19 538.732C1222.65 549.769 1212.49 556.945 1193.06 556.945C1167.12 556.945 1154.42 542.264 1155.3 517.488C1155.97 499.549 1163.09 482.056 1192.4 477.089C1203.64 476.528 1214.77 474.542 1225.52 471.185C1228.29 470.034 1230.61 467.996 1232.11 465.389C1233.61 462.785 1234.2 459.759 1233.8 456.783C1233.8 448.726 1227.18 445.194 1212.05 445.194C1193.17 445.194 1190.8 456.783 1190.3 465.996H1159.28C1159.77 425.104 1194.72 421.296 1212.22 421.296C1222.5 421.072 1232.74 422.678 1242.47 426.042C1255.22 431.228 1265.43 441.661 1265.43 461.968V531.89C1265.48 534.789 1266.16 537.64 1267.42 540.252C1268.68 542.859 1270.48 545.167 1272.72 547.012V551.482H1237.78ZM1233.97 491.162C1224.53 496.681 1211.89 496.351 1203.27 498.004C1200.88 498.231 1198.56 498.971 1196.47 500.187C1194.39 501.399 1192.6 503.051 1191.22 505.025C1189.85 506.999 1188.92 509.251 1188.5 511.623C1188.09 513.994 1188.19 516.43 1188.81 518.755C1190.74 526.316 1196.65 531.723 1210.89 529.351C1230.49 526.316 1234.02 512.796 1234.02 498.393L1233.97 491.162Z" fill="#6E6E76"/>
<path d="M1409.57 551.481H1376.45V535.696H1375.95C1373 541.608 1368.59 546.669 1363.13 550.385C1357.67 554.106 1351.34 556.366 1344.76 556.944C1326.54 556.944 1296.79 554.791 1295.08 512.795V423.448H1328.2V502.863C1327.7 513.9 1327.7 528.58 1352.05 527.639C1372.14 525.545 1375.45 514.174 1376.17 506.116V423.337H1409.3L1409.57 551.481Z" fill="#6E6E76"/>
<path d="M174.996 219.422L172.732 226.983C221.919 241.663 240.136 216.608 240.909 215.504L234.45 210.924C233.788 211.807 218.331 232.336 174.996 219.422Z" fill="#6E6E76"/>
<path d="M99.3669 180.736C107.758 196.52 120.896 249.389 124.208 262.855C115.321 266.418 107.652 272.474 102.127 280.293L101.685 280.956V281.784C101.631 282.315 101.631 282.852 101.685 283.384C101.7 285.311 102.173 287.207 103.066 288.916C103.959 290.623 105.245 292.095 106.82 293.207C119.792 303.527 154.571 299.609 163.403 296.132C187.693 286.419 174.941 199.169 172.18 181.785L164.342 183.054C170.856 223.672 174.002 283.329 160.477 288.737C152.141 292.103 121.007 294.256 111.622 286.916C111.034 286.549 110.542 286.047 110.187 285.452C109.832 284.857 109.623 284.186 109.579 283.495C115.043 276.766 122.267 271.685 130.447 268.815L133.648 267.545L132.82 264.179C132.158 261.42 116.59 195.913 106.543 177.039L99.3669 180.736Z" fill="#6E6E76"/>
<path d="M74.5251 101.654C69.4461 92.6584 63.4841 87.8021 57.4116 87.7468C47.0335 87.7468 40.5195 100.109 39.8018 101.488V101.93V102.427C38.2009 109.877 37.5937 109.987 34.2815 110.705C30.0098 111.402 25.9192 112.939 22.2471 115.23C6.84526 124.667 3.91946 141.995 3.91946 153.861C3.71587 157.766 3.86368 161.681 4.36108 165.56C2.29684 176.508 0.840913 187.563 0 198.672V201.597L12.1448 206.454C31.5765 214.29 35.3303 215.173 54.8171 201.542C59.2859 198.339 64.4822 196.298 69.9372 195.605C75.3922 194.911 80.9337 195.586 86.0624 197.568C75.7549 205.589 65.9643 214.252 56.7492 223.506C53.4695 226.589 50.8531 230.308 49.0593 234.435C47.2651 238.562 46.3316 243.012 46.3158 247.512C46.4571 255.942 49.2585 264.113 54.3204 270.856L54.9276 271.574L55.7557 271.96C68.9493 278.252 77.8373 279.3 83.0264 275.161C84.6305 273.686 85.8059 271.804 86.4277 269.715C87.0499 267.626 87.0952 265.408 86.5595 263.296V262.799V262.358C86.3275 261.925 86.2058 261.441 86.2058 260.95C86.2058 260.46 86.3275 259.976 86.5595 259.543C89.8165 252.314 110.849 244.588 123.38 241.387L121.448 233.716C117.749 234.654 85.1794 243.263 79.3275 256.287C78.6291 257.831 78.2955 259.516 78.3529 261.21C78.4103 262.904 78.8573 264.562 79.6589 266.055L79.2722 265.062C79.2722 265.669 79.6589 268.097 78.4998 269.036C77.3402 269.974 74.0832 271.463 60.5033 265.172C56.8763 259.98 54.8428 253.843 54.6518 247.512C54.6895 244.054 55.4337 240.641 56.8387 237.481C58.2436 234.32 60.2798 231.481 62.8216 229.135C73.1689 218.545 84.3971 208.853 96.3857 200.162L101.299 196.851L96.3305 193.595C89.4273 189.336 81.4231 187.202 73.3154 187.457C65.2076 187.712 57.3538 190.346 50.7324 195.03C34.1711 206.619 33.1774 206.067 15.5674 199.059L8.83259 196.409C9.4183 186.403 10.6724 176.448 12.5864 166.609L12.9176 165.616V164.567C12.325 161.029 12.0295 157.448 12.0344 153.861C12.0344 143.817 14.353 129.192 26.553 121.797C29.4112 120 32.6033 118.798 35.9376 118.265C42.1204 117.051 45.3223 115.175 47.6959 104.579C49.076 101.93 53.4922 95.4177 58.0741 95.4729C61.7729 95.4729 65.9686 100.053 69.998 108.221L71.6544 111.643L74.5251 110.373C85.2347 105.572 114.989 93.2102 124.208 93.2102C135.627 94.7849 146.855 97.522 157.717 101.378C163.761 103.422 169.916 105.117 176.155 106.455C193.286 108.708 210.639 108.708 227.77 106.455H228.046C237.016 104.398 246.308 104.159 255.372 105.752C264.437 107.344 273.09 110.735 280.821 115.727C308.037 134.325 317.366 156.344 313.943 194.147C311.073 228.307 311.569 230.57 316.317 237.799L317.366 239.345C319.961 243.429 322.334 262.799 319.022 276.541C318.464 280.386 316.496 283.887 313.501 286.364C302.461 292.766 275.19 292.214 265.53 287.026C265.319 286.941 265.13 286.809 264.978 286.64C264.978 283.825 273.81 274.444 283.36 270.636C287.335 269.036 289.488 266.718 289.709 263.793V263.296C289.709 257.501 282.146 252.976 267.628 244.146H267.241C257.906 238.306 250.234 230.16 244.964 220.494C239.694 210.828 237.005 199.967 237.155 188.959C237.169 184.869 237.538 180.789 238.259 176.763L230.475 175.328C229.665 179.808 229.259 184.351 229.261 188.904C229.074 201.289 232.097 213.512 238.037 224.381C243.977 235.252 252.63 244.4 263.156 250.934H263.598C269.887 254.343 275.855 258.315 281.428 262.799L280.545 263.186C272.706 266.331 257.746 277.037 257.249 286.254V286.75C257.244 288.309 257.683 289.837 258.514 291.156C259.345 292.475 260.533 293.531 261.941 294.201C273.81 300.602 304.117 301.43 317.697 293.428C320.106 291.691 322.14 289.485 323.677 286.944C325.213 284.403 326.221 281.578 326.64 278.638C330.228 263.627 328.13 241.939 323.935 235.316L322.831 233.605C319.574 228.694 318.967 228.087 321.727 194.975C325.205 154.413 314.551 129.578 284.961 109.38C276.441 103.682 266.846 99.7842 256.765 97.9244C246.684 96.0646 236.329 96.2821 226.335 98.5636C210.008 100.676 193.476 100.676 177.149 98.5636C173.947 98.0665 167.101 95.9695 159.815 93.7621C148.231 89.5745 136.213 86.7052 123.987 85.208C113.333 85.208 84.6823 97.239 74.5251 101.654Z" fill="#6E6E76"/>
<path d="M33.8395 95.2524C25.6694 100.109 25.283 114.071 25.2278 115.616L33.1219 115.892C33.1219 112.305 34.3916 104.247 37.8694 102.206C39.3047 101.323 41.5128 101.654 44.3281 103.089L48.027 96.08C45.9549 94.68 43.5436 93.864 41.0469 93.7184C38.5502 93.5729 36.0604 94.1025 33.8395 95.2524Z" fill="#6E6E76"/>
<path d="M30.3069 153.529L32.5702 170.361L48.1931 151.874L29.8652 150.66L30.3069 153.529ZM35.3856 155.792H38.477L35.8273 158.938L35.3856 155.792Z" fill="#6E6E76"/>
<path d="M23.1853 205.129L29.9202 209.379C30.7482 208.054 39.0288 198.341 46.4811 189.401L40.4089 184.269C35.4957 190.008 24.2342 203.418 23.1853 205.129Z" fill="#6E6E76"/>
<path d="M197.96 230.957C204.75 241.994 208.449 253.363 206.958 255.294C204.426 257.717 201.672 259.897 198.733 261.807C191.556 266.884 184.049 272.126 183.165 278.859C182.918 280.572 183.046 282.318 183.542 283.976C184.038 285.635 184.889 287.165 186.036 288.462C190.508 293.649 199.506 296.684 211.375 296.96C220.152 296.96 246.981 297.788 253.605 272.126C255.429 263.231 258.932 254.765 263.928 247.182L257.856 242.05C251.959 250.583 247.882 260.239 245.877 270.415C242.399 283.936 231.8 289.786 211.485 289.289C200.444 289.289 194.261 286.199 192.053 283.771C191.621 283.333 191.297 282.801 191.105 282.217C190.914 281.633 190.86 281.013 190.949 280.404C191.391 277.093 198.236 272.292 203.26 268.76C206.747 266.537 209.986 263.947 212.92 261.034C219.545 253.528 209.387 234.93 204.75 227.314L197.96 230.957Z" fill="#6E6E76"/>
<path d="M91.583 200.438C98.9337 204.888 105.75 210.165 111.898 216.167L118.633 211.917C115.1 206.399 99.0908 195.858 95.8891 193.761L91.583 200.438Z" fill="#6E6E76"/>
<path d="M376.82 0H431.085V105.297H431.86C439.585 86.7537 455.874 70.1974 491.313 71.743C511.075 72.9567 545.525 79.0276 563.077 121.411C584.774 173.838 578.201 213.793 560.76 252.921C544.475 289.234 522.778 304.962 484.856 303.362C474.15 302.864 463.723 299.776 454.474 294.364C445.225 288.953 437.427 281.379 431.749 272.292H430.974V294.145H376.82V0ZM440.36 145.638C434.391 159.116 431.235 173.669 431.085 188.408C431.231 203.147 434.386 217.701 440.36 231.177C449.691 249.334 464.04 255.791 476.792 255.791C489.544 255.791 503.513 249.334 512.843 231.177C518.817 217.701 521.973 203.147 522.119 188.408C521.964 173.669 518.813 159.116 512.843 145.638C503.513 127.482 489.215 121.024 476.792 121.024C464.374 121.024 449.691 127.482 440.36 145.638Z" fill="#6E6E76"/>
<path d="M654.273 202.535C653.113 214.235 653.113 226.376 660.842 237.634C665.646 245.081 672.579 250.911 680.741 254.365C688.902 257.82 697.916 258.739 706.609 257.005C722.119 253.804 735.312 243.705 738.018 232.391H791.455C782.124 274.775 732.499 303.527 695.565 303.527C676.133 303.381 657.159 297.632 640.913 286.971C622.817 274.413 609.555 256.053 603.32 234.93C601.496 226.149 600.207 217.266 599.458 208.33C598.439 192.706 599.085 177.018 601.389 161.532C615.134 75.8816 672.104 71.7428 696.118 71.7428C712.064 71.203 727.865 74.9221 741.898 82.5172C755.926 90.1123 767.681 101.309 775.941 114.954C794.932 146.852 794.932 176.598 793.771 202.535H654.273ZM737.577 164.622C737.577 148.066 732.058 120.473 699.595 119.038C666.473 117.437 653.888 144.037 654.273 164.622H737.577Z" fill="#6E6E76"/>
<path d="M815.028 75.4403H869.291V117.824H870.066C873.543 104.91 876.305 97.2391 895.236 83.4977C900.443 78.8602 906.597 75.4116 913.268 73.3913C919.944 71.3709 926.975 70.8272 933.882 71.7982V129.523C910.862 126.93 875.86 123.453 869.291 171.079V294.146H815.028V75.4403Z" fill="#6E6E76"/>
<path d="M958.389 75.4405H1012.66V108.553H1013.43C1023.92 85.5397 1044.07 71.7983 1064.99 71.7983C1113.02 71.7983 1145.53 92.8243 1145.53 147.68V294.146H1091.32V164.236C1091.32 144.866 1089 121.853 1052.18 121.853C1019.06 121.853 1012.66 140.837 1012.66 158.552V294.146H958.389V75.4405Z" fill="#6E6E76"/>
<path d="M1367.95 295.359H1313.85V272.347H1313.07C1307.4 281.469 1299.59 289.074 1290.32 294.507C1281.05 299.939 1270.59 303.035 1259.86 303.527C1221.88 305.128 1200.18 289.399 1183.9 253.086C1175.04 233.955 1169.68 213.398 1168.05 192.381C1166.99 168.017 1171.54 143.736 1181.36 121.411C1199.19 79.0276 1233.69 72.9567 1253.45 71.743C1288.67 70.1422 1304.96 86.6985 1312.74 105.241H1313.85V0H1368.06L1367.95 295.359ZM1231.98 145.252C1225.97 158.716 1222.79 173.275 1222.65 188.021C1222.78 202.768 1225.96 217.329 1231.98 230.791C1241.25 248.947 1255.61 255.404 1268.36 255.404C1281.11 255.404 1295.13 248.947 1304.41 230.791C1310.44 217.328 1313.65 202.772 1313.85 188.021C1313.68 173.278 1310.51 158.724 1304.52 145.252C1295.24 127.095 1280.89 120.638 1268.47 120.638C1256.05 120.638 1241.25 126.93 1231.98 145.252Z" fill="#6E6E76"/>
<path d="M1422.6 276.817C1401.68 257.005 1391.57 223.12 1391.57 187.635C1391.57 152.15 1401.68 118.21 1422.6 98.4534C1442.82 81.2494 1468.5 71.8018 1495.05 71.8018C1521.6 71.8018 1547.29 81.2494 1567.51 98.4534C1588.43 118.21 1598.48 152.095 1598.48 187.635C1598.48 223.175 1588.43 257.005 1567.79 276.817C1547.55 293.99 1521.87 303.417 1495.33 303.417C1468.79 303.417 1443.11 293.99 1422.87 276.817H1422.6ZM1456.27 144.866C1449.84 158.214 1446.45 172.82 1446.34 187.635C1446.49 202.458 1449.92 217.063 1456.38 230.405C1459.85 237.711 1465.33 243.883 1472.17 248.204C1479.01 252.525 1486.93 254.819 1495.02 254.819C1503.12 254.819 1511.04 252.525 1517.88 248.204C1524.72 243.883 1530.2 237.711 1533.67 230.405C1540.19 217.077 1543.68 202.471 1543.88 187.635C1543.72 172.807 1540.27 158.199 1533.78 144.866C1530.3 137.559 1524.83 131.387 1517.99 127.066C1511.15 122.745 1503.23 120.451 1495.14 120.451C1487.05 120.451 1479.12 122.745 1472.28 127.066C1465.44 131.387 1459.97 137.559 1456.49 144.866H1456.27Z" fill="#6E6E76"/>
<path d="M1622.1 75.4403H1676.37V117.824H1677.14C1680.62 104.91 1683.33 97.2391 1702.32 83.4977C1707.52 78.8602 1713.67 75.4116 1720.35 73.3913C1727.02 71.3709 1734.05 70.8272 1740.96 71.7982V129.523C1717.72 126.709 1682.83 123.453 1676.26 171.079V294.146H1621.99L1622.1 75.4403Z" fill="#6E6E76"/>
<path d="M1753.88 79.9104H1783.08V54.4695C1783.08 22.0747 1799.2 0 1834.47 0H1868.15V41.9419H1849.32C1841.98 41.9419 1837.73 46.7983 1837.73 56.8975V79.9104H1869.86V117.438H1837.73V294.035H1783.08V117.438H1753.65L1753.88 79.9104Z" fill="#6E6E76"/>
</svg>
