<svg width="513" height="208" viewBox="0 0 513 208" fill="#6E6E76" xmlns="http://www.w3.org/2000/svg">
<path d="M150.83 20.9539C150.83 20.9539 128.888 20.2381 120.036 0.425293C120.036 0.425293 99.5018 23.4376 67.6352 31.5836L69.7766 37.2429V110.528L63.7378 116.549C63.7378 116.549 39.6734 98.8377 37.5484 77.6067C35.4263 56.3563 39.6764 40.0584 63.4015 19.5462C63.4015 19.5462 70.4686 12.7945 82.503 8.56684V6.08316C44.2612 6.08316 0 40.7503 0 81.138C0 121.148 30.3678 144.838 70.4686 144.838C70.4686 144.838 95.9675 145.101 114.863 134.708V144.704C114.863 145.481 113.303 145.329 113.303 145.329C107.829 145.329 103.41 148.957 103.41 153.428C103.41 157.902 107.83 161.534 113.303 161.534C118.774 161.534 123.188 157.902 123.188 153.428V130.849C123.209 130.849 128.547 126.81 130.298 125.383C132.062 123.971 130.635 121.148 128.551 121.849C126.407 122.564 123.212 123.971 123.212 123.971V30.1654C123.213 30.1654 141.635 31.9139 150.83 20.9539ZM114.73 126.096C82.8602 129.63 74.3644 122.564 74.3644 122.564L100.569 100.262V23.7768C100.569 20.2396 114.73 29.0745 114.73 29.0745V126.096Z" fill="#6E6E76"/>
<path d="M191.538 103.082C191.538 103.082 191.538 58.1063 191.538 56.3564C191.538 54.572 195.069 50.6941 195.069 50.6941C181.982 49.2893 161.094 39.0212 161.094 39.0212C149.419 48.9082 130.633 49.9782 130.633 49.9782C130.297 52.1063 133.477 55.9798 133.477 55.9798V102.025C133.477 102.025 132.063 103.436 128.888 107.683C125.694 111.93 127.461 111.93 127.461 111.93C153.669 114.735 164.271 125.716 164.271 125.716C175.969 112.63 195.783 109.789 195.783 109.789C192.609 108.384 191.538 103.082 191.538 103.082ZM170.29 106.616C156.132 103.772 153.317 100.619 153.317 100.619V52.8056C153.317 51.7506 170.29 58.8176 170.29 58.8176V106.616Z" />
<path d="M327.474 103.082C327.474 103.082 327.474 58.1063 327.474 56.3564C327.474 54.572 331.024 50.6941 331.024 50.6941C317.927 49.2893 297.032 39.0212 297.032 39.0212C285.356 48.9082 266.594 49.9782 266.594 49.9782C266.235 52.1063 269.427 55.9798 269.427 55.9798V102.025C269.427 102.025 268.023 103.436 264.822 107.683C261.646 111.93 263.396 111.93 263.396 111.93C289.621 114.735 300.23 125.716 300.23 125.716C311.909 112.63 331.738 109.789 331.738 109.789C328.561 108.384 327.474 103.082 327.474 103.082ZM306.251 106.616C292.087 103.772 289.251 100.619 289.251 100.619V52.8056C289.251 51.7506 306.251 58.8176 306.251 58.8176V106.616Z" />
<path d="M412.57 107.353C412.552 107.353 412.494 107.353 412.457 107.33C412.457 107.33 411.669 108.499 412.57 107.353Z" fill="white"/>
<path d="M480.069 106.281C475.105 105.561 472.977 99.5312 472.977 99.5312C472.977 99.5312 472.977 56.3564 472.977 54.5751C472.977 52.8117 472.977 45.3845 472.977 45.3845C457.752 40.435 442.875 35.1179 442.875 35.1179C428.719 43.5972 413.507 48.2 413.507 48.2C413.151 50.328 416.327 54.2194 416.327 54.2194V102.374C416.327 102.374 417.399 100.96 414.199 105.193C413.397 106.284 412.886 106.943 412.564 107.356C427.756 109.215 444.507 125.724 444.507 125.724L456.695 112.637L470.475 125.724L486.773 107.332L480.069 106.281ZM451.752 104.868C445.363 99.9078 436.525 95.6159 436.525 95.6159V49.2924C432.159 46.6398 451.752 55.2745 451.752 55.2745V104.868Z" />
<path d="M199.512 51.3963L217.388 37.5986C217.388 37.5986 228.732 44.3085 230.48 47.1284C230.495 47.1284 232.263 48.5794 246.762 39.0287L249.262 37.2458C249.262 37.2458 258.454 45.7011 266.241 47.8441C266.241 47.8441 264.472 63.4338 236.852 55.9872C236.852 55.9872 230.851 54.9351 230.851 57.773C230.851 60.5929 230.851 107.689 230.851 107.689H238.638C238.638 107.689 226.589 114.741 222.336 121.154C218.11 127.505 218.407 125.722 218.407 125.722C218.422 125.722 217.032 117.954 201.804 109.103L201.463 108.048H208.55V60.5914C208.55 60.5929 205.521 51.752 199.512 51.3963Z" />
<path d="M403.245 49.2909C395.761 46.2647 383.41 36.5212 383.41 36.5212L380.947 38.2906C366.414 47.8414 362.159 48.2 362.159 48.2C360.411 45.3801 348.719 38.6493 348.719 38.6493L332.797 50.6986C338.824 51.0199 341.298 60.9696 341.298 60.9696V108.386H334.205L334.564 109.459C349.79 118.313 351.525 125.721 351.525 125.721C351.525 125.721 350.851 127.849 355.098 121.488C359.365 115.134 371.399 108.049 371.399 108.049H363.591C363.591 108.049 363.591 60.9697 363.591 58.1109L372.809 51.0199L379.877 57.0558V107.691H375.627C375.627 107.691 391.42 122.569 392.115 125.724C392.115 125.724 406.779 108.762 408.565 108.762H401.479V55.9888C401.483 55.9873 405.011 49.9828 403.245 49.2909Z" />
<path d="M356.916 200.381C355.109 200.871 353.078 201.41 351.688 200.228C349.866 198.643 350.727 182.03 350.506 177.684C350.451 176.44 350.996 175.632 350.506 173.154C350.506 173.09 340.051 170.258 333.04 163.394C328.918 167.869 321.706 172.964 313.034 175.332C314.485 176.009 315.101 177.138 315.383 178.002V197.371C315.101 198.703 314.582 199.285 313.376 200.039C315.987 200.73 322.999 202.595 330.185 206.938C330.877 207.352 336.632 202.595 339.415 201.877C340.879 203.966 345.655 208.841 350.337 206.765C351.936 206.076 355.246 202.331 356.919 201.076C356.875 201.061 356.916 200.457 356.916 200.381ZM327.474 193.819C327.474 193.819 327.395 174.132 327.474 173.81C327.395 173.81 337.831 179.359 337.831 179.359L337.91 197.879L327.474 193.819Z"/>
<path d="M301.41 165.07C306.112 169.716 308.425 170.315 313.375 172.67C312.149 178.047 301.998 179.536 295.549 176.357C294.46 175.831 292.015 177.312 292.015 177.312L291.958 199.182L295.04 199.217L285.117 206.774L276.37 199.217L279.905 199.182V175.474C278.047 173.066 275.093 173.707 271.741 175.097L281.067 166.256C284.494 163.326 289.774 172.237 292.184 171.992C293.179 171.863 297.71 167.649 298.742 166.749C299.306 166.252 301.242 164.922 301.41 165.07Z"/>
<path d="M206.109 164.603C214.06 163.453 217.066 172.779 221.396 175.843C225.437 172.572 226.946 166.086 233.166 165.07C235.159 164.769 237.716 165.785 238.542 167.081C240.312 169.886 238.414 173.331 235.516 170.621C234.899 170.058 234.334 169.568 233.167 169.956C231.922 170.354 224.574 179.116 224.761 180.396L224.931 180.525C225.758 182.215 237.904 196.896 238.716 197.521C238.737 197.538 239.052 197.876 239.052 197.876C241.989 198.495 242.435 194.719 245.619 195.15C246.125 198.871 239.789 205.696 237.042 206.763C225.631 211.281 221.548 195.635 215.529 191.799C214.27 192.534 209.14 198.927 207.616 201.071C206.358 202.838 205.338 204.892 203.403 205.919C201.13 207.125 198.458 205.073 197.349 203.57C196.109 201.862 193.178 194.527 199.041 197.516C200.02 198.045 201.581 199.007 202.916 198.529C203.898 198.196 212.319 188.586 212.488 187.762C212.564 187.365 212.465 186.913 212.319 186.598C211.543 184.832 205.119 176.557 202.916 174.806L202.746 174.68C200.133 173.869 199.271 177.513 195.847 176.517C195.939 174.413 196.711 173.323 197.538 171.984C198.346 170.618 200.64 167.195 200.882 166.932C201.934 165.823 204.286 164.81 206.109 164.603Z" />
<path d="M262.25 154.823C262.513 155.068 262.979 154.997 263.076 155.334L263.037 165.448H271.198C271.198 166.651 271.198 168.081 271.198 169.272C271.198 169.272 265.083 168.852 263.584 169.814L262.646 170.267V195.044C262.661 195.044 264.822 196.755 265.614 196.851C265.844 196.866 266.066 196.903 266.274 196.851C267.494 196.643 272.174 193.465 272.853 196.025C273.08 196.929 272.649 197.639 272.328 198.053C271.297 199.369 257.045 206.946 257.045 206.946C257.045 206.946 248.637 199.853 247.963 199.217C247.286 198.574 250.314 196.023 250.314 196.023C250.759 194.278 250.314 180.323 250.314 175.49C250.314 174.045 250.725 171.845 250.314 170.47C250.501 168.67 244.803 168.915 244.803 168.915L244.782 165.448C245.689 164.89 248.769 165.246 249.996 165.071C250.144 164.432 250.109 162.272 250.48 161.543C250.856 160.823 260.767 155.52 262.25 154.823Z"/>
<path d="M150.604 135.833C152.166 135.588 154.496 136.586 155.832 136.852C159.737 137.643 164.103 137.885 168.107 138.187C175.062 138.692 181.214 138.131 187.267 137.323C189.275 137.078 191.869 136.214 193.655 136.661C192.694 138.655 191.57 139.784 190.293 141.383C189.034 142.905 185.406 148.004 183.731 148.604C182.883 148.882 182.033 148.604 181.208 148.604C177.844 148.642 173.107 148.828 169.604 148.791C166.808 148.73 163.402 148.114 160.523 148.791C159.98 153.642 159.622 159.153 160.717 163.396C162.633 162.931 163.87 161.913 165.563 161.384C170.795 159.805 178.798 164.603 182.562 161.875C182.994 161.577 183.465 160.506 184.066 160.389C188.996 159.449 182.375 170.584 180.361 171.486C176.997 172.99 171.525 172.482 167.573 171.805C166.239 171.578 163.668 170.862 162.031 171.486C158.928 172.631 160.188 182.242 160.188 186.428C160.188 186.387 160.201 186.833 160.188 186.958C159.962 189.404 160.076 190.379 159.191 191.806C158.61 192.716 158.405 193.405 158.009 194.476C160.844 194.476 162.954 193.705 165.418 193.499C169.984 193.085 174.061 194.424 177.674 195.04C180.383 195.434 185.062 196.035 187.093 194.476C188.546 193.405 189.405 189.366 190.968 188.612C191.511 188.367 192.492 188.457 192.962 188.612C193.846 188.875 194.613 189.626 194.502 190.808C194.368 191.94 186.082 206.438 185.423 206.771C185.423 206.835 185.423 206.905 185.423 206.946C185.294 206.983 184.913 207.095 184.913 207.095C184.35 207.322 183.353 207.322 182.565 207.3C175.045 206.739 167.146 204.41 159.849 203.754C157.373 203.546 154.457 203.546 151.958 203.754C150.016 203.903 142.817 206.252 141.535 205.417C139.468 204.124 142.742 201.702 143.379 201.246C144.155 200.627 145.432 199.369 145.73 198.35C146.504 195.948 145.879 190.569 145.73 188.441C145.111 179.101 145.804 168.667 145.902 158.868C145.916 156.626 145.47 153.923 146.236 151.986C147.07 149.824 149.977 148.544 151.278 146.578C146.108 144.619 142.367 151.86 139.697 149.444C138.752 148.642 138.664 147.906 139.526 146.931C142.367 143.659 145.691 140.745 148.606 137.505C149.023 137.038 149.869 135.947 150.604 135.833Z"/>
<path d="M504.549 108.892C504.905 109.101 505.075 109.457 505.075 109.986C505.075 110.47 504.906 110.811 504.53 111.002C504.322 111.093 504.004 111.132 503.587 111.132H501.486V108.76H503.623C504.039 108.76 504.322 108.795 504.549 108.892ZM499.661 107.193V116.092H501.486V112.594H503.4C503.942 112.594 504.319 112.709 504.53 112.892C504.716 113.067 504.83 113.457 504.83 114.028V114.871C504.83 115.134 504.87 115.379 504.924 115.6C504.942 115.756 505.003 115.92 505.038 116.091H507.084V115.869C506.897 115.757 506.783 115.6 506.747 115.339C506.713 115.248 506.689 114.946 506.689 114.533V113.931C506.689 113.33 506.616 112.86 506.45 112.558C506.257 112.256 505.978 111.996 505.562 111.861C506.067 111.697 506.426 111.394 506.634 111.002C506.839 110.569 506.952 110.174 506.952 109.724C506.952 109.406 506.879 109.067 506.765 108.802C506.649 108.539 506.52 108.272 506.318 108.073C506.091 107.804 505.807 107.559 505.47 107.408C505.133 107.32 504.661 107.2 504.016 107.2H499.661V107.193Z"/>
<path d="M502.784 122.415C508.444 122.415 513 117.854 513 112.219C513 106.559 508.441 101.98 502.784 101.98C497.146 101.98 492.569 106.558 492.569 112.219C492.569 117.857 497.144 122.415 502.784 122.415ZM502.784 120.837C507.568 120.837 511.42 116.981 511.42 112.22C511.42 107.434 507.568 103.568 502.784 103.568C498.019 103.568 494.154 107.434 494.154 112.22C494.153 116.981 498.017 120.837 502.784 120.837Z" />
</svg>
