<?xml version="1.0" encoding="utf-8"?>
<!-- Generator: Adobe Illustrator 28.0.0, SVG Export Plug-In . SVG Version: 6.00 Build 0)  -->
<svg version="1.1" fill="#6E6E76" id="Layer_1" xmlns="http://www.w3.org/2000/svg" xmlns:xlink="http://www.w3.org/1999/xlink" x="0px" y="0px"
	 viewBox="0 0 1920 1080" style="enable-background:new 0 0 1920 1080;" xml:space="preserve">
<g>
	<path d="M270.3,664c-0.2-1-0.5-2-0.5-3c0-117.1,0-234.1,0-351.2c0-0.8,0-1.7,0-2.8c61.1,0,122.1,0,183.4,0c0,29.3,0,58.5,0,87.9
		c11.4,0,22.6,0,34,0c0-29.3,0-58.5,0-88c61.9,0,123.4,0,185.3,0c0.1,1,0.1,2,0.1,3c0,117,0,233.9,0,350.9c0,1-0.1,2.1-0.1,3.1
		c-39.6,0-79.1,0-118.7,0c0-60.1,0-120.1,0-180.2c-12.7,0-25,0-37.5,0c0,60.2,0,120.2,0,180.2c-31.8,0-63.6,0-95.4,0
		c0-60.1,0-120.1,0-180.2c-12.7,0-25,0-37.5,0c0,60.2,0,120.2,0,180.2C345.7,664,308,664,270.3,664z M309.4,564.2
		c-1.8,0.2-3.7,0.5-5.5,0.5c-5.7,0.1-11.4,0.2-17,0c-2.7-0.1-3.5,0.7-3.5,3.5c0.1,25.4,0.1,50.9,0.1,76.3c0,1,0,2,0,3.2
		c5.7-2.1,11.2-0.9,16.7-1.1c2.7-0.1,5.4,0,8.3,0c0-1.5,0-2.5,0-3.5c0-8.8,0-17.6,0-26.4c0-3.3,0.7-4.1,3.8-4.1
		c7.7-0.1,15.3,0,23-0.1c1.9,0,2.8,0.6,2.8,2.8c-0.1,9.7-0.1,19.5-0.1,29.2c0,1,0,2,0,2.6c2.5-0.2,4.8-0.5,7-0.6
		c4.5-0.1,9.1,0,13.6,0c1.4,0,2.7,0,4.3,0c0-1.6,0-2.7,0-3.9c0-18.8-0.1-37.6,0.1-56.4c0.1-7.2-1-14.6,0.8-21.5c-8.5,0-17,0-25.8,0
		c0,1.4,0,2.4,0,3.5c0,7.8,0,15.7,0,23.5c0,1.6-0.5,2.6-2.1,2.6c-8.3-0.1-16.6-0.3-24.9-0.5c-2,0-2.7-1.3-2.6-3.1
		C308.8,581.8,307.3,573.1,309.4,564.2z M506,564.1c-25.8,0-52,0-78.2,0c0,6.8,0,13.1,0,19.4c1.2-0.3,2.2-0.7,3.3-0.7
		c6.7-0.1,13.4,0,20.2,0c2.1,0,3.1,0.8,3,3c-0.1,19.1-0.1,38.2-0.1,57.3c0,1.1,0,2.1,0,3.1c1.8-0.2,3.1-0.4,4.4-0.4
		c5.6,0,11.2-0.2,16.8,0c2.7,0.1,3.3-0.8,3.3-3.4c-0.1-18.2-0.1-36.3-0.1-54.5c0-5,0.2-5.2,5.3-5.2c6.2,0,12.3-0.1,18.5,0
		c2.1,0,2.9-0.6,2.8-2.7c-0.1-3.7-0.1-7.4,0-11.1C505.3,567.4,505.7,565.7,506,564.1z M648.5,626.6c-0.7,0.1-2,0.5-3.4,0.5
		c-10.7,0.1-21.4,0.3-32.1-0.1c-4.3-0.2-5.5,0.2-5.4-5.8c0.1-16.5,0-33.1,0.1-49.6c0-2.7,0.3-5.5,0.5-8.1c-8,0-16.6,0-25.3,0
		c0,27.9,0,55.3,0,82.4c3.1-0.2,6.1-0.5,9-0.6c17.5-0.1,35,0,52.5,0c1.1,0,2.2,0,4,0C648.5,638.9,648.5,632.9,648.5,626.6z"/>
	<path d="M1575,574.4c-0.5,3-0.7,6-1.4,8.9c-5.1,22.1-18.6,36.3-40.7,41.3c-25.9,5.8-52,5.5-77.9-0.9c-13.5-3.3-23.6-11.2-29-24.4
		c-2.9-7.2-3.1-14.7-2.4-22.6c4.4,0.4,8.6,0.8,12.7,1.3c12,1.3,24.1,2.6,36.1,3.9c2.3,0.2,3.9,0.7,4.7,3.4c1.6,5.4,6,8.1,11.1,9.5
		c5.4,1.5,10.9,1.6,16.3,0.4c9.8-2.2,14.8-8.6,15.3-20.4c0.4-8.1,0.1-16.3,0.1-25c-0.9,0.9-1.6,1.4-2.1,2.1
		c-22.5,24.7-76.4,25.4-93.7-21.6c-7.2-19.6-7-39.8,0.3-59.4c7.2-19.3,22.1-29.9,42.2-33c8.7-1.3,17.4-1,26,0.7
		c12.1,2.3,21.4,9.2,29.1,18.5c0.5,0.7,1.1,1.3,2.1,2.5c0-6.8,0-13,0-19.3c17.1,0,33.8,0,50.8,0c0,1.2,0,2.3,0,3.4
		c0,41.2,0,82.5,0,123.7c0,1.1,0.3,2.2,0.5,3.2C1575,571.7,1575,573,1575,574.4z M1473,503.4c0.4,4,0.5,7,0.9,10
		c1.7,11.7,9.7,19.3,20.8,20c11.7,0.7,21-5.8,24.2-17.1c2-7,2-14.2,0.5-21.3c-1.1-5.6-3.7-10.4-7.9-14.4
		c-10.4-9.9-32.3-8.5-36.7,10.4C1473.9,495.3,1473.5,499.9,1473,503.4z"/>
	<path d="M977.2,452.7c0-21.6,0-42.7,0-63.8c18.3,0,36.3,0,54.5,0c0,61.5,0,123,0,184.7c-16.7,0-33.4,0-50.5,0c0-6.1,0-12.2,0-18.9
		c-3.1,3.1-5.7,5.7-8.4,8.3c-9.7,9.5-21.6,13.2-34.8,13.6c-10.3,0.3-20.2-1.2-29.4-6c-11-5.8-18.5-15-23.5-26
		c-11-24.4-12.1-49.6-1.7-74.3c9.1-21.7,27-32.3,50.5-33.2c13.3-0.5,25.7,2.4,36.7,10.3C972.7,448.9,974.6,450.6,977.2,452.7z
		 M978.2,506.6c-1-5-1.5-10.4-3.1-15.4c-3.3-10.1-12.7-16-23.6-15.4c-9.1,0.4-16.5,7-19,17.1c-2.3,9.2-2.4,18.5-0.3,27.8
		c2.4,10.8,10.6,18.1,20.2,18.4c11,0.4,20-5.8,23-16.4C976.9,517.6,977.3,512.3,978.2,506.6z"/>
	<path d="M1295.1,440c0,7.1,0,13.9,0,20.4c2.2-1.9,4.5-3.8,6.6-5.9c18.1-17.8,39.8-21.2,63.3-14.5c16.8,4.8,25.1,17.7,27.6,34.4
		c0.8,5.2,1.1,10.5,1.1,15.8c0.1,26.7,0.1,53.3,0.1,80c0,1.1,0,2.2,0,3.5c-18.2,0-36.1,0-54.4,0c0-1.2,0-2.3,0-3.4
		c0-23.4,0-46.7,0-70.1c0-2.5-0.2-5.1-0.6-7.6c-1.8-12.8-11.5-16.2-21-14.9c-9.6,1.3-15.7,7.4-17.5,17.5c-0.9,4.7-1.3,9.6-1.3,14.4
		c-0.1,20.2-0.1,40.5-0.1,60.7c0,1.1,0,2.2,0,3.5c-18.1,0-36,0-54,0c0-44.6,0-89,0-133.6C1261.6,440,1278.1,440,1295.1,440z"/>
	<path d="M774.1,437c17.5,0,32.2,1.9,45.8,8.6c21.9,10.7,34.5,28.2,37.2,52.5c2,18.1-1.5,35-12.7,49.8
		c-10.1,13.3-23.6,21.7-39.8,25.5c-22,5.2-44.1,5.3-65.3-3.1c-23.1-9.1-38.1-25.7-42.6-50.8c-6.5-36.4,14.9-69.5,51-79
		C757.2,438,766.8,436.9,774.1,437z M749.4,506.7c0.9,5.5,1.3,11.1,2.7,16.3c3.2,11.6,12.8,18.9,24,18.9c12,0.1,21.2-6.5,24.7-17.9
		c3.3-10.8,3.4-21.8,0.5-32.7c-3.1-11.7-12.5-19.3-23.3-19.5c-12.6-0.2-22.3,6.6-25.8,18.8C750.7,495.8,750.3,501.3,749.4,506.7z"/>
	<path d="M1120.1,389.1c0,61.6,0,122.9,0,184.5c-18,0-35.9,0-53.9,0c0-61.5,0-122.9,0-184.5C1084,389.1,1101.9,389.1,1120.1,389.1z"
		/>
	<path d="M1210.2,573.7c-17.9,0-35.7,0-53.6,0c0-44.5,0-88.9,0-133.6c17.8,0,35.6,0,53.6,0C1210.2,484.5,1210.2,529,1210.2,573.7z"
		/>
	<path d="M1210.3,389c0,11.6,0,23.1,0,34.8c-17.9,0-35.7,0-53.7,0c0-11.5,0-23,0-34.8C1174.4,389,1192.2,389,1210.3,389z"/>
	<path d="M787.6,391.2c11.6,0,23,0,34.6,0c0,10.5,0,20.9,0,31.5c-11.5,0-23,0-34.6,0C787.6,412.2,787.6,401.7,787.6,391.2z"/>
	<path d="M731.4,422.7c0-10.5,0-20.9,0-31.5c11.4,0,22.6,0,34.1,0c0,10.5,0,20.9,0,31.5C754.2,422.7,742.9,422.7,731.4,422.7z"/>
</g>
</svg>
