<svg width="636" height="246" viewBox="0 0 636 246" fill="none" xmlns="http://www.w3.org/2000/svg">
<path d="M250.3 130.7C248.6 127.5 251.5 125.3 252 122.6C252.3 120.8 253.1 119.2 253.6 117.5C254 116.7 254.5 115.9 253.5 115.2C253.2 115.7 252.9 116.2 252.6 116.7C245.9 127.7 235.1 131.6 223.1 132.8C201.8 135.1 180.4 136.8 159 139C154.5 139.5 151.3 138.8 149.9 134.1C148.6 129.9 146 128.8 141.6 129.6C136.4 130.6 131 130.8 125.7 131C121.4 131.1 118.4 132.3 117.9 137.2C117.5 141.4 115.4 143.1 110.9 143.4C95.5999 144.5 80.3999 146.2 65.1999 147.8C62.7999 148.1 61.5999 147 60.2999 145.4C53.5999 136.9 46.7999 128.5 39.7999 119.8C36.7999 122.7 35.1999 125.7 35.8999 129.9C36.6999 135.5 36.8999 141.2 37.4999 146.8C37.6999 148.9 37.6999 150.2 35.0999 150.4C27.0999 151.1 19.1999 151.9 11.2999 152.8C8.39989 153.1 8.99993 151.1 8.89993 149.6C7.29993 133.5 5.79991 117.5 4.19991 101.4C2.99991 88.6 1.99988 75.9 0.599877 63.1C0.199877 59.6 1.09993 58.9 4.39993 58.7C10.3999 58.4 16.2999 57.5 22.2999 57C29.1999 56.4 29.2999 56.5 29.9999 63.6C30.6999 71.2 31.2999 78.8 32.0999 87.9C35.2999 82.7 37.6999 78.8 40.1999 74.8C42.3999 71.3 45.0999 67.9 46.5999 64.1C49.8999 55.7 55.9999 52.8 64.6999 52.9C71.0999 53 77.5999 51.9 84.7999 51.3C81.9999 55.8 79.5999 59.7 77.1999 63.6C71.2999 73 65.3999 82.5 59.2999 91.9C57.7999 94.3 57.5999 95.9 59.4999 98.3C69.2999 110.3 78.8999 122.4 88.5999 134.5C89.0999 135.1 89.2999 136.1 89.5999 136.8C89.9999 136.5 90.4999 136.3 90.8999 136C96.6999 120.3 102.5 104.7 108.2 89C113 75.9 117.8 62.8 122.7 49.7C123.4 47.7 123.8 45.2 126.5 45C129.2 44.8 130 47.2 131.1 49C146.6 75 162.1 101 177.6 126.9C178.5 128.4 179.5 129.9 181.2 132.6C179.9 119.1 178.9 107.1 177.7 95.1C176.2 79.4 174.8 63.6 173.1 47.9C172.6 43.7 173.9 42.6 177.9 42.3C192.3 41.4 206.7 38.8 221.2 38.9C236.5 38.9 246.1 47.6 247.7 62.5C248.3 68.5 247 74.1 242.9 78.8C241.7 80.2 240.8 80.8 243.2 82.3C253.7 88.9 257.2 98.1 254.3 110.5C254.2 110.9 254.5 111.3 254.7 112C256.8 111.3 256.8 109.5 257.3 108.1C266.3 83.8 275.2 59.5 284.2 35.2C285 33.1 285.1 30.3 288.1 30C291.1 29.7 291.8 32.4 293 34.3C308.5 60.3 324 86.3 339.6 112.2C340.4 113.6 340.8 115.3 342.8 116.4C341 97.6 339.3 79 337.6 60.4C336.7 50.6 335.9 40.8 334.9 31.1C334.7 28.8 335 27.7 337.5 27.5C351.8 26.4 366 24 380.3 24C396.6 24.1 408.9 33.4 412.5 48C415.6 60.6 414.1 72.2 403.5 81C401.3 82.8 401.9 84 403.3 85.8C410 94.9 416.5 104.1 423.5 113.9C413.2 114.9 403.5 115.8 393.9 116.9C391.7 117.1 391 115.7 390.1 114.4C385.4 107.6 380.6 100.7 375.9 93.9C374.8 92.3 373.9 90.2 371.4 91C368.5 91.8 370.2 94.1 370.3 95.6C370.7 101.9 371.2 108.2 372 114.5C372.4 117.7 372.2 119 368.3 119.3C352.4 120.5 336.5 122.1 320.7 123.9C315.6 124.5 312.9 122.8 311.5 118.3C310.4 114.6 308.1 113.7 304.4 114.3C298.5 115.2 292.5 115.8 286.5 116C283 116.1 280.8 117.2 280.4 120.8C279.8 126.4 276.9 128.2 271.2 128.4C264 128.8 257 129.1 250.3 130.7ZM234.8 82C239.5 79 242.7 75.6 244.1 70.7C248.3 55.9 238.1 42.4 221.9 42C208.3 41.7 194.8 44 181.2 44.9C176.9 45.2 175 46.2 176 50.7C176.3 52 176.3 53.3 176.4 54.7C178.6 78.2 180.9 101.7 183 125.2C183.7 133.6 183.6 133.8 191.8 133C205.6 131.5 219.7 131.6 233.2 127.9C244.6 124.8 251.8 116.3 252.3 105.8C252.9 93.9 248.1 87.1 234.8 82ZM418.1 111.7C411.5 102.5 405.4 93.8 399.1 85.3C397.5 83.1 397.3 82 399.8 80.3C405 76.9 408.3 72 410 66C415.5 45.9 401.1 27.3 379.8 27C366.6 26.9 353.6 29.2 340.5 30.1C337.4 30.3 337.7 32.1 337.9 34.2C338.6 42.2 339.3 50.1 340 58.1C341.7 77 343.5 95.8 345.2 114.7C345.5 117.7 346.6 118.7 349.7 118.3C354.8 117.6 360 117.2 365.1 117C368.6 116.9 369.2 115.4 368.8 112.3C368.1 106.2 367.5 100.1 367.1 93.9C367 92.1 365.2 89.2 368.6 88.6C371.5 88.1 374.6 87 376.9 90.7C381.1 97.5 386.1 103.8 390.4 110.5C392.3 113.5 394.5 114.3 397.8 113.9C404.2 113 410.7 112.5 418.1 111.7ZM30.0999 96.6C28.9999 84.6 27.8999 74 26.9999 63.4C26.7999 60.7 26.0999 59.5 23.0999 59.9C17.6999 60.6 12.1999 60.9 6.69991 61.3C4.49991 61.5 3.09993 62 3.39993 64.9C5.89993 90.1 8.09988 115.2 10.5999 140.4C11.4999 149.6 11.6999 149.6 20.7999 149C35.1999 148 35.4999 148 33.1999 133.5C31.9999 125.9 34.2999 120.3 39.5999 115.1C45.6999 122.6 52.0999 129.9 57.6999 137.7C61.4999 143.1 65.3999 146.1 72.3999 144.2C76.1999 143.1 80.2999 143.4 84.2999 143C85.8999 142.8 87.7999 143.3 88.5999 141.3C89.3999 139.3 87.6999 138.3 86.6999 137C76.3999 124.1 66.1999 111.2 55.8999 98.4C54.5999 96.8 53.3999 95.5 54.9999 93.2C58.6999 87.7 62.0999 82 65.5999 76.4C69.9999 69.4 74.2999 62.4 79.1999 54.6C71.2999 55.3 64.3999 56 57.4999 56.6C54.8999 56.8 53.4999 58 52.0999 60.2C45.1999 71.9 38.0999 83.5 30.0999 96.6ZM288.3 32.3C287.5 34.3 287.1 35.2 286.8 36.1C280.2 54 273.5 71.9 266.9 89.9C262.8 100.9 258.9 112.1 254.7 123C253.3 126.6 254.3 127.4 257.7 126.9C261.3 126.4 265 125.8 268.6 125.9C274.1 126.1 277.3 124 278 118.3C278.3 115.1 280 113.7 283.5 113.5C290.6 113.2 297.8 112.7 304.8 111.5C309.2 110.8 311.6 111.9 313.3 115.9C314.1 117.8 314.5 121 317.5 120.9C324.8 120.5 332.1 119.7 340.1 119C322.7 89.9 305.8 61.6 288.3 32.3ZM126.5 47.4C125.2 50.7 124.3 53 123.5 55.3C113.5 82.2 103.5 109.2 93.4999 136.1C91.9999 140.1 93.4999 142.1 97.8999 141.8C100.9 141.6 103.9 140.8 106.8 141C112.4 141.3 115.6 139.3 116.2 133.6C116.6 130 118.7 128.9 122.3 128.7C130.1 128.3 137.9 127.5 145.7 126.6C148.1 126.3 149.7 126.8 150.4 129.1C152.5 136.3 157.6 137.1 163.9 135.8C167.5 135.1 171.2 135 174.8 134.7C177.3 134.5 178.4 133.9 176.7 131.1C169.4 119.1 162.2 106.9 155 94.8C145.7 79.4 136.3 63.8 126.5 47.4Z" fill="#6E6E76"/>
<path d="M334 207.8C331 202.2 336 200.7 338.5 198.3C340.2 196.6 341.1 199 342 199.8C348.1 205.3 355.2 206.3 363 204.6C366.8 203.8 368.7 201.2 368.9 197.7C369.1 194.3 366.4 192.8 363.6 192C358 190.5 352.3 189.1 346.7 187.8C330.3 183.8 321.4 169.3 325.9 153.8C327.3 148.8 330.2 144.8 334.2 141.7C346 132.5 368.3 132.3 380.2 141.3C381.8 142.5 384.3 143.6 381.7 146.2C379.8 148.1 379.1 151.5 374.9 148.5C366.7 142.6 357.3 141.8 347.8 144.8C339.7 147.4 335.1 153.3 335.1 160.8C335 168.7 339 174.5 347.1 177.2C353.2 179.3 359.6 180.4 365.8 182.2C375.1 184.9 379 189.2 379.2 196.7C379.5 204.4 376.3 209.5 369 212C359.4 215.2 349.9 215.1 340.5 210.9C339.4 210.4 338.5 209.7 337 210.4C337.8 212.7 340.2 213 341.9 213.7C351.4 217.4 361.1 217.4 370.6 213.7C377.9 210.9 381.9 205 381.7 197.6C381.6 190 378 184.7 370.9 181.8C364.2 179.1 357.1 178.1 350.3 176.1C343.9 174.2 338.7 171.2 337.5 163.8C336.5 157.4 338.8 151.8 344.4 148.6C352.6 143.8 366.1 144.6 373.8 150.4C375.2 151.5 377.4 152.6 374.9 154.4C373.1 155.7 373.3 160.9 368.9 157.8C364.8 154.9 360.2 153.6 355.2 154.3C351.7 154.8 348 155.6 347.6 160.1C347.2 164.7 350.6 166 354.1 166.9C360.1 168.4 366.1 169.5 372 171.3C387.2 175.9 393.7 186.2 391.8 201.9C390.9 209.3 387.1 215 380.9 219C366.1 228.6 340.3 226.9 326.9 215.4C325.7 214.3 322 213.2 325 210.7C327.4 208.7 329 203 334 207.8Z" fill="#6E6E76"/>
<path d="M635 18.1C635.1 19.1 635.1 20.1 635.4 21.1C636.1 23.9 635.6 25.2 632.2 25.3C626.7 25.5 621.3 26.4 615.8 26.8C613.1 27 612.3 27.6 612.6 30.6C614.7 51.1 616.4 71.7 618.4 92.2C618.7 95 618.3 96 615.3 96.1C608.2 96.5 601 97.2 593.9 98.1C590.6 98.5 589.7 97.4 589.4 94.3C587.7 74.4 585.6 54.6 584 34.7C583.7 30.7 582.5 29.6 578.7 30.1C566.5 31.5 554.2 32.8 541.9 33.6C537.8 33.9 537.5 35.5 537.8 38.8C539.8 58.3 541.4 77.9 543.5 97.4C543.9 101.5 543.6 103.3 538.7 103.3C532.1 103.3 525.4 104.3 518.8 105.2C515.2 105.7 514.8 104.1 514.6 101.2C512.8 81 510.8 60.8 509 40.6C508.8 37.9 508.2 36.8 505.2 37.1C486.7 38.9 468.1 40.6 449.5 42.3C444.7 42.7 447.1 46.1 446.9 48.3C446.7 50.6 447.1 52.5 450.4 52.1C458.8 51.1 467.3 50.6 475.7 49.5C478.9 49.1 479.7 49.9 479.8 53C480.1 58.9 480.7 64.9 481.4 70.8C481.7 73.6 479.9 73.3 478.4 73.5C470.1 74.4 461.9 75.3 453.6 75.9C450.3 76.1 449.2 77.2 449.9 80.3C450.4 83.1 449.3 86.9 454.6 86.3C465 85.1 475.4 84.4 485.8 83.1C489.9 82.6 491.3 83.8 491.4 87.8C491.6 93.3 492.3 98.7 492.8 104.2C493.1 106.8 492.3 108 489.4 108.2C468.9 110 448.3 112 427.8 114C424.8 114.3 423.9 113.6 423.7 110.5C422.3 93.9 420.6 77.4 419 60.8C417.9 48.6 416.8 36.4 415.6 24.3C415.3 21.4 416 20.4 419.1 20.1C480.2 14.5 541.3 8.80001 602.5 3.00001C611.4 2.20001 620.4 1.3 629.3 0.300002C632.3 2.07871e-06 633.5 0.600002 633.6 3.8C634 8.5 634.6 13.3 635 18.1ZM418.9 27.9C420.3 43.5 421.7 58.3 423.1 73C424.1 84.3 425.2 95.5 426.3 106.8C426.5 108.8 426 111.3 429.7 110.9C445.2 109.3 460.8 107.9 476.3 106.3C480.8 105.8 487.1 107.5 489.5 104C491.9 100.4 488.9 94.7 489 89.9C489.1 86.2 487.4 85.5 484.1 85.9C475.8 86.8 467.5 87.5 459.2 88.2C447.7 89.2 447.8 89.2 447 77.7C446.7 74.3 448 73.4 451 73.2C459.1 72.6 467.2 71.7 475.4 71.1C477.8 70.9 479.1 70.4 478.6 67.6C478 63.7 477.6 59.7 477.4 55.7C477.3 52.9 476.3 52.1 473.4 52.4C467.3 53.2 461.2 53.6 455 54.1C444.4 55 444.5 55 443.8 44.2C443.6 40.9 444.6 40 447.7 39.8C457.8 39 467.9 37.9 478 37.1C481 36.9 482.3 36 481.6 32.9C480.8 29.2 479.9 25.2 480 21.7C480.1 16.3 477.5 17.3 474.3 17.6C457.8 19.2 441.2 20.8 424.7 22.2C420.5 22.5 417.1 23.1 418.9 27.9ZM631.9 15C631.8 12.8 631.4 10.7 631.5 8.50001C631.7 3.60001 629.5 2.70003 624.9 3.20003C607.7 5.10003 590.5 6.60003 573.3 8.20003C560.9 9.30003 560.9 9.20001 561.9 21.5C562 22.8 562.2 24.2 562.1 25.5C561.9 28.5 563.3 29.2 566.1 28.8C571.2 28.1 576.4 27.8 581.5 27.1C584.7 26.7 586.1 27.2 586.4 31C588.1 51 590.2 71.1 592 91.1C592.3 94.2 592.8 95.6 596.4 95.1C601.5 94.4 606.7 94.1 611.8 93.7C614.9 93.5 615.8 92.5 615.5 89.1C613.4 69.1 611.8 49 609.8 29C609.4 25.1 610.7 24.1 614.2 24C619 23.9 623.8 23.2 628.6 23C631.7 22.9 633.3 21.8 632.5 18.4C632 17.4 632 16.2 631.9 15ZM522.2 102.1C527 101.7 531.1 101.2 535.3 101C538.8 100.8 540.5 100.9 540.2 95.6C539.3 78.1 536.9 60.8 535.8 43.4C535.6 39.8 534 35.4 535.4 32.7C537.1 29.6 542.1 31.6 545.6 30.7C549.5 29.8 554.8 31.6 557.1 28.9C559.7 25.9 556.7 21 556.9 16.9C557 15.9 556.7 14.9 556.7 13.9C556.7 11 555.6 9.90003 552.4 10.2C531.2 12.3 510 14.3 488.8 16.2C486.7 16.4 485.8 17 486.1 19.2C486.7 23.8 487.2 28.5 487.5 33.1C487.7 36 489.1 36.2 491.4 35.9C496.5 35.3 501.7 35 506.8 34.2C510.1 33.7 511.5 34.6 511.8 38.2C513.4 57.8 515.4 77.3 517.1 96.9C517.4 100.7 517.9 103.5 522.2 102.1Z" fill="#6E6E76"/>
<path d="M210.6 171.2C211.2 192.5 211.7 212.8 212.4 233.2C212.6 239.8 207.5 236.6 204.8 237.5C201.4 238.7 202.2 235.4 202.1 233.8C201.2 205.4 200.3 177.1 199.4 147.5C204.9 152.6 209.7 157 214.5 161.5C224.2 170.6 233.9 179.7 243.6 188.9C246 191.2 247.3 191.5 249.5 188.4C260.5 173 271.8 157.7 282.9 142.4C283.3 141.9 283.7 141.4 284.5 140.4C286.6 146.3 286.7 152 287.6 157.5C291.1 179.8 294.3 202.2 297.7 224.5C298.1 227.1 298.7 229.6 294.6 229.5C291.5 229.4 287.9 231.8 287.1 225.8C284.9 208.8 282.3 191.9 279.8 175C279.4 172.2 279.7 168 277 167.2C274.6 166.5 273.7 170.7 272.2 172.8C264.8 182.7 257.6 192.6 250.5 202.7C248.8 205.1 247.8 205.7 245.4 203.3C235.3 193.6 225 184.3 214.7 174.8C213.6 173.7 212.4 172.8 210.6 171.2Z" fill="#6E6E76"/>
<path d="M448.8 127.1C451.4 127.1 454.2 125.9 454 130.3C453.9 133.7 454.1 135.9 449.3 136.2C435.1 137 420.9 138.8 406.7 139.9C403.8 140.1 403.6 141.2 403.8 143.6C404.6 151.4 405.2 159.1 405.9 166.9C407.1 180 408.5 193.1 409.4 206.2C409.7 209.9 411.1 210.4 414.3 210.1C429 208.6 443.7 207.4 458.5 206C461.1 205.7 463 205.7 463 209.3C463 212.4 463.3 214.5 459.1 214.9C440.4 216.4 421.6 218.2 402.9 220C400.3 220.2 399.9 219.4 399.7 217.1C397.8 196.1 395.9 175 393.9 154C393.3 147.9 392.7 141.7 392.1 135.6C391.9 133.6 391.9 132.3 394.7 132.1C412.9 130.4 430.9 128.7 448.8 127.1Z" fill="#6E6E76"/>
<path d="M469.5 213.7C467.7 193.6 465.7 173.6 464.1 153.6C463.4 145.7 461.7 138 461.8 130C461.9 127.2 462.1 125.9 465.3 125.7C483.7 124.2 502.1 122.5 520.4 120.7C525 120.3 522.8 124 523.6 125.9C524.5 128 523.8 129.4 520.9 129.7C508.1 130.7 495.4 132 482.7 133.1C481.9 133.2 481 133.2 480.2 133.2C473 133.8 473.1 133.8 473.7 140.9C475.5 160.4 477.3 180 478.8 199.5C479.1 203.2 480.1 204.2 483.8 203.8C498.8 202.2 513.9 201 529 199.4C534.1 198.9 531.7 202.9 532.5 204.8C533.5 207.2 532.2 208 529.6 208.2C509.6 209.9 489.6 211.8 469.5 213.7Z" fill="#6E6E76"/>
<path d="M248.6 209.2C258 196.3 267 183.8 276.8 170.3C279.7 189.8 282.3 208.2 285.2 226.6C285.7 230 284.6 230.9 281.7 230.7C279.2 230.5 275.6 233.2 275 227.8C273.9 218.2 272.3 208.7 270.9 199.2C270.7 198.1 270.9 196.8 269.4 195.9C263.9 203.5 258.1 211 253 218.9C250.4 223 248.7 222.5 245.7 219.5C238.9 212.8 231.7 206.4 224.4 199.5C224.4 207.8 224.4 215.5 224.4 223.2C224.4 226.2 224.6 229.2 225 232.1C225.4 235.2 224.2 236 221.2 236.1C214.7 236.4 214.8 236.6 214.6 229.9C214.2 214.9 213.6 200 213.1 185.1C213 182.5 213.1 179.9 213.1 176.2C225.3 187.5 236.8 198.2 248.6 209.2Z" fill="#6E6E76"/>
<path d="M200.7 237.8C190.4 239.1 190.3 239.1 185.4 230.6C175 212.6 164.6 194.6 154.2 176.6C153.3 175 152.3 173.5 150.8 171.1C147.7 179.8 144.9 187.6 142.1 195.4C137.2 209.2 132.4 223 127.5 236.7C124.5 245.2 124.5 245.2 114.4 245.6C116 241.1 117.5 236.9 119 232.6C128.4 206.9 137.8 181.1 147.3 155.4C147.8 154.1 147.7 152.1 149.6 152C151.3 151.8 151.6 153.5 152.2 154.6C168 181.5 183.7 208.3 199.5 235.2C200 236.1 200.2 236.9 200.7 237.8Z" fill="#6E6E76"/>
<path d="M447.8 172.3C450.8 171.5 451.7 172.7 451.8 175.5C451.9 178 452.6 180.3 448.6 180.5C440.3 181 432.1 182.1 423.8 182.7C421.2 182.9 420.6 183.8 420.8 186.3C421.4 197.7 421.3 197.8 432.6 197C441.1 196.4 449.5 195.6 457.9 194.8C460.4 194.6 462.2 194.6 462 197.9C461.9 200.5 463.3 203.5 458.6 203.8C444 204.9 429.4 206.3 414.8 207.7C411.9 208 411.9 206.5 411.7 204.6C410.9 196 410.2 187.4 409.2 178.8C408.8 175.7 410.6 175.7 412.6 175.5C424.3 174.4 436.1 173.3 447.8 172.3Z" fill="#6E6E76"/>
<path d="M521.4 173.8C512.5 174.6 503.6 175.5 494.6 176.1C490.8 176.3 489.5 177.4 490.1 181.5C491.5 191.8 491.3 191.9 501.9 190.8C510.5 190 519.1 189.3 527.7 188.2C532.6 187.6 530.8 191.3 531.5 193.3C532.3 195.8 531.7 197 528.5 197.3C514.1 198.4 499.7 199.7 485.3 201.2C481.9 201.6 481 200.5 480.9 197.3C480.4 189.2 479.7 181.1 478.8 172.9C478.5 170.4 479 169.3 481.8 169.1C492.9 168.2 504 167.4 515.1 166C519.9 165.4 521.8 166.8 521.3 171.5C521.2 172.2 521.3 172.8 521.4 173.8Z" fill="#6E6E76"/>
<path d="M413.3 173.2C409.3 174.7 408.5 172 408.2 168.1C407.7 160.5 406.9 152.9 406.2 145.3C406 143.5 405.7 142.3 408.4 142.1C422.3 141 436.1 139.6 449.9 138.2C453.7 137.8 455.2 138.8 455.2 142.9C455.2 146 454.4 146.9 451.4 147.1C441.3 147.8 431.2 148.9 421.1 149.7C418.4 149.9 417.5 150.6 417.7 153.6C418.4 164.5 418.2 164.5 428.9 163.4C435 162.8 441.2 162.5 447.3 161.8C451.2 161.3 450.6 163.9 450.9 166.1C451.2 168.4 451.1 170 447.8 170.2C436.6 170.9 425.3 172.1 413.3 173.2Z" fill="#6E6E76"/>
<path d="M518.2 132C520.1 132.9 523.6 129.4 524.4 134.7C525 138.8 524.5 140.6 519.9 140.9C510.4 141.4 501 142.5 491.5 143.1C488.1 143.3 486.5 144.1 487 148.1C488.2 157.7 488 157.8 497.6 157.1C503.7 156.7 509.9 156 516 155.4C518.3 155.1 520.3 154.9 520.1 158.3C519.9 160.6 522 163.6 517.2 164C505.4 164.9 493.7 166 481.9 167.1C479.9 167.3 478.1 167.7 477.9 164.4C477.4 156.3 476.8 148.1 475.8 140.1C475.4 136.6 476.7 135.8 479.7 135.6C492.4 134.4 505.2 133.1 518.2 132Z" fill="#6E6E76"/>
<path d="M134.5 223.6C140.1 207.7 145.6 192.3 151.3 176.1C159.8 190.9 168 205 176.5 219.8C162.5 221.1 149.1 222.3 134.5 223.6ZM152.7 197C151.6 200.3 150.9 202.4 150.2 204.6C146.7 215.4 147.3 216 158.6 213.7C158.8 213.7 158.9 213.7 159.1 213.7C160.8 213.5 161.4 212.8 160.4 211.1C157.9 206.7 155.6 202.3 152.7 197Z" fill="#6E6E76"/>
<path d="M187.4 238.6C184.2 240 181.2 239.7 178.3 240C175.5 240.3 175 237.9 174.4 236.3C172.6 231.5 169.5 230.1 164.5 230.9C157.6 232 150.6 232.4 143.7 232.9C141.6 233 140.9 234.1 140.3 235.8C137.1 244.3 137.1 244.2 127.3 244.5C129.3 238.9 131.2 233.5 133 228.1C133.5 226.5 134.4 226.1 135.8 226C149 224.8 162.2 223.5 175.5 222.2C177.2 222 178.3 222.4 179.2 224C181.7 228.8 184.6 233.6 187.4 238.6Z" fill="#6E6E76"/>
<path d="M250.3 130.7C250 130.5 249.8 130.3 249.5 130.2C250.3 129.5 249.9 130.8 250.3 130.7Z" fill="#6E6E76"/>
<path d="M234.8 82C248 87.1 252.9 93.9001 252.3 105.7C251.8 116.2 244.6 124.7 233.2 127.8C219.7 131.5 205.6 131.4 191.8 132.9C183.6 133.8 183.7 133.5 183 125.1C180.9 101.6 178.6 78.1 176.4 54.6C176.3 53.3001 176.3 51.9 176 50.6C175 46.1 176.9 45.1 181.2 44.8C194.8 43.9 208.2 41.5 221.9 41.9C238.1 42.3 248.3 55.7001 244.1 70.6C242.7 75.6 239.6 79 234.8 82ZM208.7 113.1C213.1 112.7 216.9 112.4 220.7 111.9C227 111 229.8 106.8 228.6 100.5C227.8 96.4 225.6 93.7 221.4 93.4C215.5 93.1 208.6 92.4 204 95.5C201 97.5 204.4 104.1 204.2 108.7C204.2 112.1 205.4 114.2 208.7 113.1ZM213.8 60.4C210.2 60.7 206.5 61.1 202.9 61.3C200.9 61.4 200.1 62.2 200.1 64.4C200.1 77.9 200.6 78.4 213.8 76.9C214.3 76.8 214.8 76.8001 215.3 76.7001C220.7 75.7001 222.7 73.0001 222.2 67.6C221.7 62.7 219.1 60.4 213.8 60.4ZM197.9 105.5C197.7 102.6 196.2 100.7 193.3 100.5C190.5 100.3 188.4 101.8 188.3 104.8C188.1 107.9 189.7 109.9 192.9 109.9C195.9 110.1 197.3 108.2 197.9 105.5ZM194.9 72.6C194.5 69.9 193.2 68.1 190.1 68.1C187.1 68.1 185.4 69.8001 185.3 72.6C185.2 75.7 187.1 77.6 190.2 77.5C193.1 77.4 194.6 75.6 194.9 72.6ZM234.1 61.2001C231.3 61.7001 229.6 63.3001 229.6 66.2001C229.7 69.1001 231.4 70.9 234.3 70.9C237.5 70.9 239.2 68.9 239.1 65.8C239 62.7 237 61.3001 234.1 61.2001ZM222.8 119.4C222.6 122.6 224.3 124 227.2 124.1C230.4 124.2 232.1 122.6 232.2 119.4C232.3 116.4 230.6 114.7 227.7 114.6C224.6 114.5 222.9 116.2 222.8 119.4ZM243.2 95.1001C243.3 91.4001 241.7 89.5 238.9 89.4C235.9 89.2 233.9 90.9001 233.9 94.2001C233.9 97.2001 235.6 98.9 238.5 98.9C241.3 99 243 97.4001 243.2 95.1001ZM241.5 105.1C238.7 105.4 236.9 106.7 236.8 109.8C236.8 113.1 238.6 114.8 241.7 114.7C244.6 114.6 246.2 112.8 246.2 109.8C246.1 106.9 244.4 105.4 241.5 105.1ZM196.2 88.9C196.1 86.1 194.8 84.2001 191.8 84.1001C188.9 84.0001 187.1 85.4 186.9 88.4C186.7 91.6 188.4 93.5 191.5 93.5C194.3 93.5 196 91.9 196.2 88.9ZM207.5 56.4C210.1 56.2 212 54.6001 211.9 51.7001C211.9 48.6001 210 46.8 206.8 46.9C203.8 47 202.2 49 202.3 51.8C202.5 54.7 204.3 56.3 207.5 56.4ZM229.2 85.1001C229.3 81.2001 227.7 79.4 224.9 79.3C221.8 79.1 219.9 80.9001 219.9 84.1001C219.9 87.1001 221.6 88.8 224.5 88.8C227.3 88.8 229.1 87.3001 229.2 85.1001ZM214.5 122.1C214.3 119.3 212.9 117.4 210 117.3C207.1 117.2 205.2 118.7 205 121.7C204.7 125 206.7 126.8 209.7 126.9C212.5 126.9 214.1 125 214.5 122.1ZM225.9 47.3C222.9 47.7 221.1 49.5 221.2 52.3C221.3 55.1 223.1 57 226 57C228.9 57 230.7 55.2 230.9 52.4C231.1 49 228.5 48 225.9 47.3ZM194.8 128C197.7 127.5 199.4 125.9 199.4 123C199.4 120 197.5 118.3 194.7 118.3C191.6 118.3 189.8 120.2 189.9 123.4C190.1 126.4 192.2 127.7 194.8 128ZM193.1 54.2001C193 51.4001 191.3 49.6 188.6 49.4C185.8 49.2 183.8 50.8 183.6 53.8C183.4 56.9 185.1 58.9 188.3 59C191.2 59 192.8 57.3001 193.1 54.2001ZM213.2 85.7001C213.1 82.8001 211.7 81 208.6 80.9C205.6 80.8 203.9 82.4 203.8 85.4C203.7 88.4 205.3 90.1001 208.3 90.2001C211.3 90.3001 212.9 88.7001 213.2 85.7001Z" fill="#6E6E76"/>
<path d="M418.1 111.7C410.7 112.5 404.3 113 397.8 113.8C394.5 114.2 392.3 113.5 390.4 110.4C386.1 103.7 381.1 97.4 376.9 90.6C374.6 86.9 371.5 87.9 368.6 88.5C365.1 89.1 366.9 92 367.1 93.8C367.5 99.9 368.1 106.1 368.8 112.2C369.2 115.2 368.6 116.8 365.1 116.9C360 117 354.8 117.5 349.7 118.2C346.6 118.6 345.5 117.6 345.2 114.6C343.5 95.7 341.7 76.9 340 58C339.3 50 338.6 42.1 337.9 34.1C337.7 32 337.4 30.2 340.5 30C353.6 29.2 366.6 26.8 379.8 26.9C401.2 27.1 415.5 45.8 410 65.9C408.4 71.9 405 76.8 399.8 80.2C397.3 81.9 397.5 83 399.1 85.2C405.4 93.9 411.5 102.5 418.1 111.7ZM373.3 46.8C370.3 47.1 367.3 47.4 364.4 47.8C363.3 47.9 361.7 47.8 362.2 49.6C363.9 55.7 363.7 62.1 364.5 68.3C364.7 70 365.3 71.1 367.4 70.8C371.3 70.2 375.4 70.1 379.2 69.2C385 67.9 387.7 63.8 387.3 57.8C386.8 49.8 382.5 46.5 373.3 46.8ZM360 91C359.6 88 358 86.4 355 86.5C352 86.6 350.3 88.4 350.4 91.2C350.4 94.3 352.3 96.1 355.5 95.9C358.5 95.8 359.7 93.7 360 91ZM352 107.8C352.8 109.8 352.5 113 356.3 112.9C359.4 112.8 361.5 111 361.6 108.1C361.7 105.1 359.8 103.2 356.6 103C353.6 102.9 352.2 104.5 352 107.8ZM352.2 62.9C354.9 62.5 356.8 61.2 356.9 58.2C357 55.2 355.4 53.4 352.5 53.3C349.3 53.1 347.5 55 347.5 58.1C347.5 61 349.3 62.5 352.2 62.9ZM389.7 95.9C392.6 95.5 394.4 94 394.4 91.1C394.4 88.3 392.8 86.3 389.9 86.3C386.8 86.3 385 88 385 91.2C385 94.2 387 95.5 389.7 95.9ZM387.9 37.1C387.3 34.8 386 32.9 382.9 33C379.6 33.1 378 35.2 378.2 38.2C378.4 41.1 380.4 42.7 383.3 42.5C386.2 42.3 387.7 40.5 387.9 37.1ZM378.4 78.7C378.1 75.8 376.6 74.1 373.6 74.1C370.6 74.1 368.9 75.8 368.9 78.7C368.8 81.9 370.7 83.7 373.8 83.6C376.8 83.4 378.2 81.5 378.4 78.7ZM389.6 69.8C386.9 69.9 385.1 71.3 385 74.3C384.9 77.2 386.4 79 389.4 79.2C392.6 79.4 394.5 77.6 394.5 74.5C394.4 71.7 392.8 69.9 389.6 69.8ZM395.7 105.1C395.8 108.2 397.6 109.8 400.4 109.8C403.5 109.8 405.3 107.8 405.1 104.6C404.9 101.6 403 100.1 400.1 100.2C397.2 100.4 395.7 102.1 395.7 105.1ZM397 50C399.8 49.8 401.6 48.3 401.9 45.4C402.2 42 399.7 40.6 397 40.3C394.2 40 392.3 41.7 392.2 44.6C392.2 47.8 393.9 49.6 397 50ZM366.3 32.4C363.1 32.7 361.4 34.4 361.5 37.3C361.7 40.4 363.5 42.2 366.7 42C369.6 41.8 371.1 39.9 370.9 36.9C370.8 33.9 368.9 32.6 366.3 32.4ZM395.7 61.3C395.7 64 397 65.8 400 66C402.9 66.2 404.8 64.8 405 61.8C405.2 58.6 403.5 56.7 400.4 56.6C397.7 56.5 395.9 58.1 395.7 61.3ZM355.1 40.5C355.4 35.7 353.1 34.4 350.3 34.2C347.7 34.1 346 35.7 345.8 38.5C345.6 41.7 347.3 43.7 350.4 43.7C353.3 43.9 354.9 42.2 355.1 40.5ZM358.2 74.5C358 71.5 356.4 69.9 353.4 69.9C350.4 69.9 348.7 71.7 348.7 74.4C348.7 77.4 350.4 79.3 353.7 79.2C356.6 79.1 357.9 77.2 358.2 74.5Z" fill="#6E6E76"/>
<path d="M30.0997 96.6002C38.0997 83.5002 45.1997 72.0002 52.1997 60.3002C53.4997 58.1002 54.9997 56.9002 57.5997 56.7002C64.4997 56.2002 71.3997 55.5002 79.2997 54.7002C74.3997 62.5002 70.0997 69.5002 65.6997 76.5002C62.1997 82.1002 58.7997 87.8002 55.0997 93.3002C53.4997 95.6002 54.6997 96.9002 55.9997 98.5002C66.2997 111.4 76.5997 124.2 86.7997 137.1C87.7997 138.3 89.4997 139.4 88.6997 141.4C87.8997 143.5 85.9997 142.9 84.3997 143.1C80.3997 143.5 76.2997 143.2 72.4997 144.3C65.4997 146.3 61.5997 143.2 57.7997 137.8C52.1997 130 45.7997 122.7 39.6997 115.2C34.3997 120.4 32.0997 126 33.2997 133.6C35.5997 148 35.1998 148.1 20.8998 149.1C11.7998 149.7 11.5997 149.7 10.6997 140.5C8.19974 115.3 5.99973 90.2002 3.49973 65.0002C3.19973 62.1002 4.49971 61.6002 6.79971 61.4002C12.2997 61.0002 17.7997 60.6002 23.1997 60.0002C26.1997 59.6002 26.7997 60.9002 27.0997 63.5002C27.8997 74.0002 28.9997 84.6002 30.0997 96.6002ZM21.9997 87.6002C21.6997 84.8002 20.1997 83.0002 17.2997 82.9002C14.0997 82.8002 12.2998 84.8002 12.3998 87.9002C12.4998 90.8002 14.3997 92.4002 17.2997 92.4002C20.1997 92.3002 21.6997 90.5002 21.9997 87.6002ZM20.3998 127.6C23.1998 127.2 25.2997 126.1 25.4997 123.1C25.6997 120 23.9997 118 20.7997 117.9C17.9997 117.9 16.0997 119.5 15.9997 122.4C15.9997 125.4 17.6998 127 20.3998 127.6ZM51.1997 114.2C54.1997 114.1 55.8997 112.6 55.9997 109.7C56.0997 106.5 54.2997 104.8 51.0997 104.8C48.0997 104.9 46.4997 106.7 46.5997 109.6C46.5997 112.5 48.1997 114.2 51.1997 114.2ZM19.2997 100C16.4997 100.4 14.5997 101.8 14.4997 104.7C14.3997 107.7 16.0998 109.5 18.8998 109.6C21.9998 109.7 23.8998 107.8 23.8998 104.7C23.9998 101.9 22.0997 100.4 19.2997 100ZM48.2997 92.0002C48.1997 89.0002 46.5997 87.3002 43.6997 87.3002C40.5997 87.3002 38.7997 89.2002 38.8997 92.4002C38.9997 95.4002 40.7997 97.0002 43.6997 96.9002C46.5997 96.7002 48.1997 95.0002 48.2997 92.0002ZM72.0997 131C68.9997 131.1 67.2997 132.9 67.2997 135.7C67.1997 138.6 68.9997 140.4 71.8997 140.5C74.9997 140.5 76.9997 138.7 76.8997 135.6C76.7997 132.6 74.9997 131 72.0997 131ZM39.8997 106.4C39.3997 103.6 38.0997 101.7 35.0997 101.7C31.8997 101.7 30.1997 103.6 30.2997 106.7C30.3997 109.6 32.2997 111.2 35.1997 111.1C38.0997 111 39.5997 109.2 39.8997 106.4ZM66.2997 122.7C66.1997 119.7 64.5997 118 61.7997 117.9C58.9997 117.8 57.0997 119.3 56.9997 122.3C56.8997 125 58.1997 127.2 60.7997 127.5C63.7997 127.8 66.0997 126.2 66.2997 122.7ZM57.7997 77.5002C57.2997 74.8002 55.7997 72.9002 52.7997 73.0002C49.5997 73.1002 47.8997 75.1002 48.0997 78.2002C48.2997 81.2002 50.3997 82.7002 53.1997 82.5002C56.0997 82.3002 57.5997 80.3002 57.7997 77.5002ZM57.8997 63.6002C58.0997 66.7002 59.6997 68.6002 62.8997 68.5002C65.8997 68.4002 67.5997 66.6002 67.3997 63.7002C67.2997 60.9002 65.5997 59.0002 62.5997 59.1002C59.7997 59.1002 57.8997 60.3002 57.8997 63.6002ZM14.8998 66.8002C12.3998 67.1002 10.6997 68.7002 10.6997 71.6002C10.6997 74.4002 12.7997 76.8002 15.0997 76.7002C17.6997 76.6002 20.4997 74.8002 20.1997 71.2002C19.9997 68.2002 18.1998 66.8002 14.8998 66.8002ZM27.2997 139.3C27.1997 136.3 25.5997 134.6 22.6997 134.6C19.7997 134.5 17.9998 136 17.8998 139C17.7998 142.2 19.4997 144 22.6997 144C25.5997 143.9 27.1997 142.2 27.2997 139.3Z" fill="#6E6E76"/>
<path d="M288.3 32.2998C305.8 61.4998 322.7 89.8998 340.1 119.1C332.1 119.8 324.8 120.6 317.5 121C314.6 121.2 314.1 117.9 313.3 116C311.6 112 309.3 110.8 304.8 111.6C297.8 112.8 290.6 113.4 283.5 113.6C279.9 113.7 278.3 115.2 278 118.4C277.4 124.1 274.2 126.2 268.6 126C265 125.9 261.3 126.5 257.7 127C254.2 127.5 253.3 126.7 254.7 123.1C258.9 112.1 262.9 101 266.9 89.9998C273.5 72.0998 280.1 54.0998 286.8 36.1998C287.1 35.1998 287.5 34.2998 288.3 32.2998ZM291.3 71.5998C287.7 80.8998 284.4 89.1998 280.9 98.0998C289.3 97.3998 297.1 96.6998 305.6 95.9998C300.7 87.5998 296.3 80.0998 291.3 71.5998ZM321.7 98.9998C321.3 95.9998 319.7 94.2998 316.8 94.2998C313.7 94.2998 311.9 96.3998 312.1 99.4998C312.3 102.4 314.2 104 317.1 103.9C320 103.6 321.4 101.7 321.7 98.9998ZM305.5 68.0998C305.1 65.1998 303.5 63.2998 300.6 63.3998C297.5 63.3998 295.7 65.3998 295.9 68.5998C296.1 71.4998 297.9 73.0998 300.9 72.9998C303.9 72.6998 305.2 70.7998 305.5 68.0998ZM325.9 107.1C323.1 107.6 321.3 109 321.4 112C321.5 115 323.3 116.7 326.1 116.7C329.2 116.7 331.1 114.8 330.9 111.6C330.8 108.7 328.9 107.3 325.9 107.1ZM281.4 89.0998C281.1 86.0998 279.4 84.2998 276.5 84.2998C273.4 84.3998 271.6 86.2998 271.8 89.4998C272 92.3998 273.9 93.9998 276.8 93.7998C279.9 93.6998 281.2 91.7998 281.4 89.0998ZM281.8 74.8998C284.7 74.4998 286.5 72.9998 286.6 70.0998C286.7 67.1998 285 65.2998 282.1 65.1998C279 65.0998 277 66.8998 277.1 70.0998C277.1 72.9998 279.1 74.3998 281.8 74.8998ZM309.3 89.9998C312.6 89.9998 314.3 88.3998 314.4 85.4998C314.5 82.3998 312.7 80.3998 309.6 80.4998C306.7 80.5998 305 82.2998 305 85.2998C305 88.2998 306.7 89.7998 309.3 89.9998ZM285.8 51.8998C286 54.9998 287.6 56.7998 290.8 56.7998C293.7 56.6998 295.3 54.8998 295.3 51.9998C295.3 48.7998 293.4 47.0998 290.3 47.1998C287.5 47.3998 285.6 48.7998 285.8 51.8998ZM272.9 109.2C275 109.1 276.7 107.4 276.7 104.5C276.7 101.7 275 99.7998 272 99.7998C268.8 99.7998 267 101.6 267.1 104.8C267.3 107.7 269.1 109.3 272.9 109.2ZM300 104.2C299.5 102.1 298.2 100.1 295.2 100.1C292 100.2 290.3 102.1 290.5 105.3C290.7 108.3 292.6 109.9 295.4 109.7C298.1 109.6 300 107.8 300 104.2ZM272.1 118.9C271.8 116 270.5 114.1 267.5 114C264.2 113.8 262.5 115.9 262.3 118.8C262.2 121.8 264.2 123.3 267.1 123.4C270 123.5 271.5 121.7 272.1 118.9Z" fill="#6E6E76"/>
<path d="M126.5 47.3999C136.3 63.7999 145.6 79.2999 154.9 94.8999C162.1 107 169.3 119.1 176.6 131.2C178.3 134 177.2 134.6 174.7 134.8C171.1 135.1 167.4 135.2 163.8 135.9C157.4 137.1 152.4 136.4 150.3 129.2C149.7 127 148.1 126.4 145.6 126.7C137.8 127.6 130 128.5 122.2 128.8C118.6 129 116.5 130.1 116.1 133.7C115.5 139.4 112.3 141.5 106.7 141.1C103.7 140.9 100.8 141.7 97.8 141.9C93.4 142.2 91.9 140.2 93.4 136.2C103.4 109.2 113.4 82.2999 123.4 55.3999C124.3 52.9999 125.3 50.6999 126.5 47.3999ZM143.9 111C139 102.7 134.5 94.8999 129.5 86.4999C125.9 95.6999 122.7 104.1 119.2 113.1C127.8 112.3 135.5 111.7 143.9 111ZM137.5 119.8C137.3 117.3 136.1 115.4 133.1 115.1C129.6 114.7 127.5 117.3 127.4 119.9C127.3 122.4 129.7 124.7 132.7 124.7C135.3 124.7 137.2 123.1 137.5 119.8ZM125.7 84.5999C125.4 81.6999 124.1 79.6999 121.1 79.5999C118 79.4999 116 81.1999 116.1 84.3999C116.1 87.2999 117.9 88.9999 120.8 89.0999C123.8 89.1999 125.2 87.2999 125.7 84.5999ZM144 84.2999C143.9 81.1999 142.3 79.4999 139.5 79.2999C136.6 79.0999 134.7 80.7999 134.6 83.6999C134.4 86.7999 136.1 88.7999 139.3 88.7999C142.2 88.7999 143.8 87.0999 144 84.2999ZM148.1 95.7999C145 95.9999 143.3 97.7999 143.3 100.6C143.3 103.7 145.3 105.5 148.5 105.3C151.5 105.1 153 103.2 152.9 100.4C152.8 97.3999 150.9 95.9999 148.1 95.7999ZM114.4 97.4999C111.3 97.6999 109.6 99.3999 109.6 102.2C109.6 105 111.2 106.9 114.2 107C117.4 107 119.2 105.2 119.1 102.1C119 99.0999 117.1 97.6999 114.4 97.4999ZM132.9 67.6999C132.4 65.2999 131.2 63.1999 128.2 63.0999C125 62.9999 123.2 64.7999 123.1 67.8999C123.1 70.8999 124.9 72.5999 127.8 72.5999C130.8 72.6999 132.4 70.8999 132.9 67.6999ZM155.8 120C158.8 119.7 160.5 118.1 160.6 115.3C160.7 112.4 159 110.5 156.1 110.5C153 110.4 151 112.2 151.1 115.4C151.2 118.2 153.1 119.7 155.8 120ZM114.1 121.8C113.9 118.9 112.3 117.2 109.4 117.2C106.2 117.2 104.5 119.2 104.6 122.3C104.7 125.2 106.6 126.9 109.5 126.8C112.3 126.6 114 124.9 114.1 121.8ZM163.9 123C160.9 123.1 159.1 124.5 158.9 127.5C158.7 130.4 160.2 132.3 163.2 132.5C166.3 132.7 168.3 131.1 168.4 127.9C168.4 124.9 166.6 123.4 163.9 123ZM104.9 139.3C107.4 139.1 109.2 137.7 109.2 134.7C109.2 131.8 107.8 130 104.8 129.9C101.6 129.8 99.8 131.4 99.9 134.7C99.9 137.6 101.6 139.1 104.9 139.3Z" fill="#6E6E76"/>
<path d="M418.9 27.9001C417 23.1001 420.5 22.5001 424.9 22.1001C441.5 20.7001 458 19.1001 474.5 17.5001C477.7 17.2001 480.3 16.2001 480.2 21.6001C480.1 25.2001 481 29.1001 481.8 32.8001C482.4 35.9001 481.2 36.8001 478.2 37.0001C468.1 37.8001 458 39.0001 447.9 39.7001C444.7 39.9001 443.8 40.8001 444 44.1001C444.7 54.9001 444.6 54.9001 455.2 54.0001C461.3 53.5001 467.5 53.1001 473.6 52.3001C476.5 51.9001 477.4 52.8001 477.6 55.6001C477.8 59.6001 478.2 63.6001 478.8 67.5001C479.2 70.3001 478 70.8001 475.6 71.0001C467.5 71.6001 459.4 72.5001 451.2 73.1001C448.2 73.3001 446.9 74.2001 447.2 77.6001C448.1 89.1001 447.9 89.1001 459.4 88.1001C467.7 87.4001 476 86.7001 484.3 85.8001C487.6 85.4001 489.3 86.1001 489.2 89.8001C489.1 94.6001 492.1 100.4 489.7 103.9C487.3 107.4 481.1 105.7 476.5 106.2C461 107.8 445.4 109.2 429.9 110.8C426.3 111.2 426.7 108.7 426.5 106.7C425.4 95.4001 424.4 84.2001 423.3 72.9001C421.7 58.2001 420.4 43.5001 418.9 27.9001ZM440 66.1001C439.8 63.2001 438.3 61.4001 435.4 61.3001C432.2 61.2001 430.4 63.1001 430.5 66.2001C430.5 69.1001 432.4 70.8001 435.2 70.8001C438.1 70.8001 439.7 69.0001 440 66.1001ZM456.8 64.3001C456.7 61.5001 455.1 59.6001 452.3 59.4001C449.2 59.2001 447.2 61.1001 447.2 64.2001C447.1 67.1001 449 68.8001 451.9 68.9001C454.8 69.1001 456.4 67.3001 456.8 64.3001ZM452.1 34.9001C454.9 34.4001 456.9 32.9001 456.8 29.9001C456.7 26.8001 454.5 25.0001 451.6 25.1001C448.7 25.2001 447.1 27.4001 447.2 30.2001C447.3 33.2001 449.4 34.5001 452.1 34.9001ZM478.8 91.8001C475.8 91.9001 474.1 93.5001 474.1 96.4001C474.1 99.3001 475.7 101.1 478.7 101.2C481.9 101.3 483.8 99.5001 483.7 96.3001C483.6 93.5001 481.9 91.8001 478.8 91.8001ZM432 36.2001C434.9 35.9001 436.6 34.1001 436.5 31.3001C436.4 28.5001 434.7 26.6001 431.7 26.7001C428.6 26.8001 426.7 28.6001 426.9 31.8001C427.2 34.7001 429.1 36.1001 432 36.2001ZM443 100.4C442.9 97.6001 441.4 95.7001 438.5 95.5001C435.6 95.3001 433.6 96.8001 433.5 99.8001C433.3 102.9 434.8 104.9 438.1 105C441.1 105.1 442.7 103.5 443 100.4ZM438.4 48.4001C438.1 45.3001 436.5 43.6001 433.7 43.6001C430.9 43.6001 429 45.2001 428.9 48.2001C428.8 51.4001 430.6 53.1001 433.8 53.0001C436.8 53.0001 438 51.0001 438.4 48.4001ZM468.2 57.9001C465.5 58.3001 463.7 59.8001 463.8 62.8001C463.9 66.0001 465.8 67.6001 469 67.4001C471.9 67.2001 473.4 65.2001 473.3 62.4001C473.1 59.5001 471.3 58.0001 468.2 57.9001ZM477 26.9001C476.6 24.5001 475.1 22.7001 472.2 22.7001C469.3 22.7001 467.5 24.3001 467.4 27.3001C467.4 30.4001 469.2 32.3001 472.3 32.2001C475.3 32.1001 476.8 30.3001 477 26.9001ZM457.4 103.2C461.4 103.2 463.4 101.6 463.3 98.4001C463.3 95.6001 461.2 93.7001 458.5 93.7001C455.7 93.7001 453.7 95.4001 453.8 98.4001C453.9 101.1 454.6 103.5 457.4 103.2ZM436.5 88.2001C439.4 88.0001 441.1 86.5001 441.2 83.5001C441.3 80.5001 439.6 78.8001 436.8 78.7001C433.7 78.6001 431.8 80.3001 431.9 83.6001C431.9 86.6001 433.6 88.0001 436.5 88.2001Z" fill="#6E6E76"/>
<path d="M631.9 15.0002C632 16.2002 632 17.3002 632.3 18.5002C633.1 21.9002 631.6 22.9002 628.4 23.1002C623.6 23.3002 618.8 24.0002 614 24.1002C610.5 24.2002 609.2 25.2002 609.6 29.1002C611.6 49.1002 613.2 69.2002 615.3 89.2002C615.7 92.7002 614.7 93.6001 611.6 93.8001C606.5 94.1001 601.3 94.4002 596.2 95.2002C592.7 95.7002 592.1 94.3002 591.8 91.2002C590 71.2002 587.9 51.1002 586.2 31.1002C585.9 27.4002 584.5 26.8002 581.3 27.2002C576.2 27.9002 571 28.2001 565.9 28.9001C563.2 29.3001 561.8 28.5002 561.9 25.6002C562 24.3002 561.8 22.9002 561.7 21.6002C560.7 9.30016 560.7 9.40014 573.1 8.30014C590.3 6.70014 607.6 5.30014 624.7 3.30014C629.3 2.80014 631.5 3.70016 631.3 8.60016C631.4 10.7002 631.8 12.9002 631.9 15.0002ZM603.1 34.3001C603 31.3001 601.4 29.5001 598.6 29.3001C595.5 29.1001 593.5 31.1002 593.6 34.2002C593.6 37.1002 595.4 38.9001 598.3 38.9001C601.2 38.9001 602.8 37.2001 603.1 34.3001ZM606.5 67.0002C606.3 64.3002 604.9 62.4002 602 62.2002C599.1 62.1002 597.2 63.6002 597 66.6002C596.8 69.8002 598.6 71.7001 601.7 71.8001C604.5 71.9001 606.1 70.0002 606.5 67.0002ZM600 54.9001C602.8 54.6001 604.7 53.2001 604.8 50.3001C604.9 47.1001 603 45.3001 599.9 45.3001C597 45.3001 595.3 47.2002 595.3 50.1002C595.4 53.0002 597.1 54.6001 600 54.9001ZM570.8 13.9001C567.8 14.1001 566 15.4001 565.9 18.4001C565.8 21.5001 567.7 23.8001 570.4 23.8001C573.1 23.9001 575.3 21.9002 575.3 18.7002C575.3 15.8002 573.5 14.3001 570.8 13.9001ZM607.3 10.2002C604.5 10.4002 602.5 11.5002 602.5 14.6002C602.4 17.7002 603.8 19.8001 607 19.9001C609.9 20.0001 611.7 18.4002 611.9 15.5002C612.1 12.3002 610.2 10.7002 607.3 10.2002ZM607.9 82.9001C607.6 80.3001 606.3 78.3002 603.3 78.1002C600.1 77.9002 598.2 79.8001 598.1 82.9001C598.1 85.7001 599.8 87.6002 602.8 87.6002C605.8 87.6002 607.4 85.9001 607.9 82.9001ZM588.9 13.0002C585.2 13.0002 583.6 14.6002 583.7 17.6002C583.8 20.6002 585.6 22.2002 588.5 22.1002C591.4 22.0002 593.1 20.3001 593 17.3001C593.1 14.2001 591.1 13.1002 588.9 13.0002ZM627.4 13.7002C627.1 10.8002 625.6 9.00016 622.6 9.10016C619.5 9.20016 617.7 11.1002 617.9 14.2002C618.1 17.1002 620 18.6002 622.9 18.5002C626 18.4002 627.3 16.6002 627.4 13.7002Z" fill="#6E6E76"/>
<path d="M522.2 102.1C518 103.6 517.4 100.7 517 96.8C515.3 77.2 513.4 57.7 511.7 38.1C511.4 34.5 510 33.7 506.7 34.1C501.6 34.8 496.4 35.1 491.3 35.8C489 36.1 487.5 35.9 487.4 33C487.1 28.4 486.6 23.7 486 19.1C485.7 16.9 486.7 16.3 488.7 16.1C509.9 14.2 531.1 12.2 552.3 10.1C555.5 9.79998 556.5 10.9 556.6 13.8C556.6 14.8 556.8 15.8 556.8 16.8C556.6 20.9 559.6 25.9 557 28.8C554.7 31.5 549.4 29.7 545.5 30.6C542 31.4 537 29.5 535.3 32.6C533.8 35.3 535.4 39.7 535.7 43.3C536.8 60.7 539.2 78 540.1 95.5C540.4 100.8 538.7 100.7 535.2 100.9C531.1 101.2 527 101.6 522.2 102.1ZM528.6 40.6C528.2 38.1 527 36.2 523.9 36.1C520.9 36 519.1 37.5 519 40.5C518.9 43.7 520.8 45.5 523.8 45.6C526.8 45.5 528.2 43.6 528.6 40.6ZM514.1 19.2C511.2 19.4 509.2 20.8 509.1 23.7C508.9 26.9 510.8 28.8 513.9 28.8C516.8 28.9 518.6 26.9 518.7 24.1C518.8 21.2 517 19.6 514.1 19.2ZM501 25.3C500.6 22.3 499.1 20.6 496.1 20.6C493.1 20.6 491.3 22.4 491.3 25.2C491.3 28.3 493.1 30.2 496.3 30.1C499.3 30 500.6 27.9 501 25.3ZM531.9 73.8C531.8 70.9 530.4 69.1 527.5 68.9C524.3 68.7 522.4 70.4 522.4 73.6C522.4 76.4 524 78.2 527 78.2C530 78.3 531.6 76.7 531.9 73.8ZM537.4 21.6C536.9 19.1 535.7 17 532.7 17C529.5 17 527.8 18.8 527.9 22C528 24.9 529.8 26.6 532.7 26.5C535.5 26.4 537.2 24.7 537.4 21.6ZM530.4 56.6C530 53.8 528.6 51.9 525.6 51.9C522.4 51.9 520.7 53.8 520.8 56.9C520.9 59.8 522.8 61.4 525.7 61.3C528.7 61.3 530.2 59.5 530.4 56.6ZM553 20.6C552.8 17.6 551.3 15.9 548.4 15.7C545.5 15.5 543.6 17.1 543.5 20.1C543.3 23.2 545 25.1 548.3 25.2C551.2 25.2 552.7 23.5 553 20.6ZM528.4 84.6C525.7 85 523.7 86.2 523.8 89.3C523.8 92.5 525.6 94.2 528.7 94.1C531.7 94 533.2 92.1 533.1 89.3C533 86.4 531.2 84.9 528.4 84.6Z" fill="#6E6E76"/>
<path d="M208.7 113.1C205.4 114.2 204.2 112.1 204.3 108.7C204.5 104.1 201.1 97.5001 204.1 95.5001C208.7 92.4001 215.5 93.1001 221.5 93.4001C225.7 93.6001 227.9 96.4001 228.7 100.5C229.9 106.8 227.1 111 220.8 111.9C216.9 112.4 213.1 112.6 208.7 113.1ZM217 96.0001C215.8 96.1001 213.8 96.6001 211.9 96.5001C206.8 96.2001 205.6 98.2001 206.5 103.2C207.9 110.5 207.6 110.6 215.2 109.8C216.5 109.7 217.8 109.4 219.2 109.3C223.3 108.9 226.5 107.6 226.1 102.7C225.5 97.2001 223.8 95.8001 217 96.0001Z" fill="#6E6E76"/>
<path d="M213.8 60.3999C219.1 60.3999 221.7 62.6999 222.2 67.5999C222.7 72.9999 220.7 75.6999 215.3 76.6999C214.8 76.7999 214.3 76.7999 213.8 76.8999C200.6 78.3999 200 77.8999 200.1 64.3999C200.1 62.1999 200.9 61.3999 202.9 61.2999C206.5 61.0999 210.2 60.6999 213.8 60.3999ZM213.5 62.9999C211.7 63.1999 209.9 63.7999 208.1 63.6999C203.6 63.2999 203 65.1999 203.2 69.3999C203.5 74.7999 205.7 75.6999 210.2 74.5999C211.6 74.2999 213.1 74.1999 214.6 73.9999C218.2 73.5999 220 71.6999 219.6 67.9999C219.2 64.4999 217.1 62.7999 213.5 62.9999Z" fill="#6E6E76"/>
<path d="M373.3 46.7998C382.5 46.3998 386.8 49.6998 387.3 57.7998C387.7 63.6998 384.9 67.8999 379.2 69.1999C375.3 70.0999 371.3 70.1998 367.4 70.7998C365.3 71.0998 364.8 69.9998 364.5 68.2998C363.7 62.0998 364 55.6999 362.2 49.5999C361.7 47.7999 363.4 47.9998 364.4 47.7998C367.4 47.4998 370.4 47.1998 373.3 46.7998ZM365.9 54.7998C366.1 56.6998 366.1 57.7999 366.3 58.9999C367.5 69.0999 367.5 69.0998 377.6 66.8998C382.3 65.8998 385.1 62.3999 384.8 58.0999C384.4 52.8999 381.4 49.7999 376.5 49.4999C374.7 49.3999 372.9 49.9998 371 49.7998C366.8 49.5998 364.6 50.7998 365.9 54.7998Z" fill="#6E6E76"/>
<path d="M291.3 71.6001C296.3 80.0001 300.7 87.6001 305.6 96.0001C297.1 96.7001 289.3 97.4001 280.9 98.1001C284.5 89.2001 287.7 80.9001 291.3 71.6001ZM284.9 95.3001C290.8 94.8001 295.8 94.3001 301.4 93.8001C298.1 88.2001 295.2 83.2001 291.8 77.5001C289.3 84.0001 287.2 89.3001 284.9 95.3001Z" fill="#6E6E76"/>
<path d="M143.9 111C135.5 111.7 127.8 112.3 119.2 113.1C122.7 104.2 125.9 95.8 129.5 86.5C134.5 94.9 139.1 102.6 143.9 111ZM130.1 92.5C127.7 98.8 125.5 104.2 123.2 110.3C129 109.8 134 109.3 139.6 108.8C136.3 103.1 133.4 98.2 130.1 92.5Z" fill="#6E6E76"/>
</svg>
