<svg width="186" height="63" viewBox="0 0 186 63" fill="none" xmlns="http://www.w3.org/2000/svg">
<g clip-path="url(#clip0_2455_109)">
<path d="M111.168 60.4134H107.772L109.477 56.0731L111.168 60.4134ZM113.242 63L110.08 55.1962H108.874L105.728 63H106.816L107.507 61.2756H111.477L112.168 63H113.256H113.242ZM102.919 57.5491C102.919 58.4259 102.287 59.0397 101.36 59.0397H99.3017V56.0585H101.36C102.287 56.0585 102.919 56.6722 102.919 57.5491ZM104.007 63L101.89 59.8142C102.963 59.7265 103.919 58.952 103.919 57.5491C103.919 56.1461 102.904 55.1962 101.463 55.1962H98.3164V63H99.2869V59.9019H100.846L102.845 63H103.992H104.007ZM93.4639 63V56.0731H95.9637V55.2109H90.0083V56.0731H92.4934V63H93.4639ZM88.4202 63L85.3763 58.9958L88.2437 55.2109H87.0526L84.7293 58.3382L82.4059 55.2109H81.2149L84.097 59.0104L81.0384 63H82.2295L84.7293 59.6827L87.2291 63H88.4055H88.4202ZM79.215 63V62.1378H75.0536V59.4488H79.1415V58.5866H75.0536V56.0731H79.215V55.2109H74.0684V63.0146H79.215V63Z" fill="#6E6E76"/>
<path d="M153.091 49.8476V48.9854H149.444V42.0585H148.474V49.8622H153.091V49.8476ZM144.871 45.9603C144.871 47.7724 143.739 49.1315 141.989 49.1315C140.239 49.1315 139.107 47.7724 139.107 45.9603C139.107 44.1482 140.224 42.7891 141.989 42.7891C143.754 42.7891 144.871 44.1336 144.871 45.9603ZM138.092 45.9603C138.092 48.2693 139.651 49.9937 141.989 49.9937C144.327 49.9937 145.886 48.2693 145.886 45.9603C145.886 43.6514 144.312 41.9269 141.989 41.9269C139.666 41.9269 138.092 43.6514 138.092 45.9603ZM143.195 41.2839C143.489 41.2839 143.739 41.0355 143.739 40.7286C143.739 40.4217 143.489 40.1879 143.195 40.1879C142.901 40.1879 142.636 40.4363 142.636 40.7286C142.636 41.0209 142.886 41.2839 143.195 41.2839ZM140.754 41.2839C141.063 41.2839 141.298 41.0355 141.298 40.7286C141.298 40.4217 141.063 40.1879 140.754 40.1879C140.445 40.1879 140.21 40.4363 140.21 40.7286C140.21 41.0209 140.46 41.2839 140.754 41.2839ZM135.504 49.8476V42.0438H134.534V48.2109L130.019 42.0438H129.019V49.8476H129.99V43.5637L134.563 49.8476H135.504ZM126.402 49.8476V48.9854H122.241V46.2965H126.329V45.4342H122.241V42.9207H126.402V42.0585H121.27V49.8622H126.402V49.8476ZM116.021 49.8476L119.182 42.0438H118.064L115.418 48.7808L112.771 42.0438H111.653L114.8 49.8476H116.006H116.021ZM109.58 42.0438H108.609V49.8476H109.58V42.0438ZM106.168 49.8476V48.9854H102.522V42.0585H101.551V49.8622H106.168V49.8476ZM97.9484 45.9603C97.9484 47.7724 96.8161 49.1315 95.0663 49.1315C93.3164 49.1315 92.1841 47.7724 92.1841 45.9603C92.1841 44.1482 93.3017 42.7891 95.0663 42.7891C96.8308 42.7891 97.9484 44.1336 97.9484 45.9603ZM91.1695 45.9603C91.1695 48.2693 92.7282 49.9937 95.0663 49.9937C97.4043 49.9937 98.963 48.2693 98.963 45.9603C98.963 43.6514 97.3896 41.9269 95.0663 41.9269C92.7429 41.9269 91.1695 43.6514 91.1695 45.9603ZM78.9646 48.7516C79.6116 49.4823 80.6115 49.9937 81.9791 49.9937C84.0966 49.9937 84.8759 48.8392 84.8759 47.6994C84.8759 46.0626 83.4201 45.6681 82.1408 45.3319C81.1409 45.0689 80.2292 44.8351 80.2292 44.0459C80.2292 43.3152 80.9056 42.8038 81.8467 42.8038C82.6996 42.8038 83.5378 43.096 84.1113 43.739L84.6994 43.023C84.0377 42.3361 83.1113 41.9416 81.9055 41.9416C80.3616 41.9416 79.2146 42.8184 79.2146 44.1044C79.2146 45.6388 80.6115 45.9896 81.8761 46.3111C82.9055 46.5887 83.8613 46.8518 83.8613 47.7871C83.8613 48.3862 83.4201 49.1315 82.0085 49.1315C80.9056 49.1315 80.0528 48.5908 79.5381 48.0209L78.9646 48.7516ZM76.8177 49.8476V48.9854H72.6563V46.2965H76.7442V45.4342H72.6563V42.9207H76.8177V42.0585H71.6858V49.8622H76.8177V49.8476ZM66.4362 49.8476L69.5977 42.0438H68.4801L65.8333 48.7808L63.1864 42.0438H62.0689L65.2157 49.8476H66.4215H66.4362ZM59.9955 42.0438H59.025V49.8476H59.9955V42.0438ZM54.1724 49.8476V42.9207H56.6723V42.0585H50.7168V42.9207H53.2019V49.8476H54.1724ZM47.8935 47.261H44.4967L46.2025 42.9207L47.8935 47.261ZM49.9669 49.8476L46.8054 42.0438H45.5996L42.4528 49.8476H43.5409L44.2321 48.1232H48.2023L48.8935 49.8476H49.9816H49.9669ZM40.35 49.8476V42.0438H39.3795V48.2109L34.8652 42.0438H33.8652V49.8476H34.8357V43.5637L39.4089 49.8476H40.35Z" fill="#6E6E76"/>
<path d="M12.5882 23.1921C14.4851 23.1921 15.985 22.3883 17.0878 20.7662C18.1907 19.1441 18.7494 16.952 18.7494 14.1608C18.7494 11.3695 18.1907 9.25052 17.0878 7.70146C15.985 6.1524 14.4851 5.37787 12.5882 5.37787C10.6913 5.37787 9.19137 6.1524 8.08852 7.70146C6.98566 9.25052 6.42688 11.3987 6.42688 14.1608C6.42688 16.9228 6.98566 19.1587 8.08852 20.7662C9.19137 22.3883 10.6913 23.1921 12.5882 23.1921ZM12.5882 28.5553C10.7207 28.5553 9.01491 28.2192 7.47092 27.5616C5.92692 26.904 4.6035 25.9541 3.50064 24.7119C2.39779 23.4697 1.53021 21.9645 0.927318 20.1962C0.324424 18.428 0.015625 16.4113 0.015625 14.1608C0.015625 11.9102 0.324424 9.90814 0.927318 8.13988C1.53021 6.37161 2.39779 4.89562 3.50064 3.69729C4.6035 2.49896 5.92692 1.5929 7.47092 0.949896C9.01491 0.321503 10.7207 0 12.5882 0C14.4557 0 16.1614 0.321503 17.7054 0.949896C19.2494 1.57829 20.5728 2.51357 21.6757 3.7119C22.7785 4.92484 23.6314 6.41545 24.249 8.1691C24.8519 9.92276 25.1607 11.9248 25.1607 14.1461C25.1607 16.3674 24.8519 18.4134 24.249 20.1816C23.6461 21.9499 22.7785 23.4697 21.6757 24.6973C20.5728 25.9395 19.2494 26.8894 17.7054 27.547C16.1614 28.2046 14.4557 28.5407 12.5882 28.5407" fill="#6E6E76"/>
<path d="M32.5117 28.0438V0.511475H38.7612V22.8121H49.7309V28.0438H32.5117Z" fill="#6E6E76"/>
<path d="M62.9077 0.511475H56.6582V28.0584H62.9077V0.511475Z" fill="#6E6E76"/>
<path d="M76.3767 28.0438L68.0098 0.511475H74.6416L77.9649 13.357C78.3913 14.8768 78.7589 16.3528 79.0824 17.7703C79.4059 19.1879 79.7882 20.6639 80.2147 22.1837H80.3911C80.7882 20.6639 81.1558 19.1879 81.494 17.7703C81.8322 16.3528 82.1998 14.8768 82.5968 13.357L85.8613 0.511475H92.2431L83.9056 28.0584H76.3767V28.0438Z" fill="#6E6E76"/>
<path d="M129.298 23.0167H130.489C131.68 23.0167 132.754 22.8559 133.724 22.5491C134.695 22.2422 135.504 21.7453 136.195 21.0438C136.871 20.357 137.401 19.4509 137.783 18.3257C138.165 17.2004 138.356 15.7975 138.356 14.1461C138.356 12.4948 138.165 11.1357 137.783 10.025C137.401 8.9144 136.871 8.02296 136.195 7.36534C135.518 6.70772 134.695 6.24008 133.724 5.9478C132.754 5.65553 131.68 5.524 130.489 5.524H129.298V23.0167ZM123.049 28.0438V0.511475H130.872C133.004 0.511475 134.916 0.774523 136.607 1.31523C138.312 1.85594 139.768 2.67431 140.989 3.78496C142.209 4.89561 143.135 6.31315 143.797 8.03757C144.444 9.762 144.782 11.7933 144.782 14.1607C144.782 16.5282 144.459 18.5887 143.797 20.3278C143.15 22.0668 142.224 23.5136 141.033 24.6534C139.842 25.7933 138.415 26.6409 136.768 27.2108C135.121 27.7808 133.254 28.0584 131.225 28.0584H123.064L123.049 28.0438Z" fill="#6E6E76"/>
<path d="M158.414 0.511475H152.164V28.0584H158.414V0.511475Z" fill="#6E6E76"/>
<path d="M175.546 28.5553C173.737 28.5553 171.929 28.2192 170.12 27.5616C168.326 26.904 166.709 25.9102 165.297 24.5804L168.87 20.3132C169.855 21.1608 170.958 21.8476 172.164 22.3883C173.37 22.929 174.546 23.1921 175.708 23.1921C177.017 23.1921 177.987 22.9583 178.619 22.476C179.252 21.9937 179.575 21.3507 179.575 20.5324C179.575 20.1086 179.487 19.7432 179.296 19.4363C179.119 19.1294 178.84 18.8518 178.487 18.618C178.134 18.3841 177.708 18.1503 177.208 17.9457C176.708 17.7265 176.164 17.5073 175.575 17.2443L171.958 15.7244C171.252 15.4468 170.561 15.0814 169.899 14.6284C169.238 14.1754 168.635 13.6493 168.12 13.0501C167.591 12.4509 167.179 11.7349 166.87 10.9311C166.561 10.1274 166.4 9.2213 166.4 8.19833C166.4 7.07307 166.635 6.00627 167.12 5.01253C167.606 4.01879 168.282 3.14197 169.164 2.39666C170.046 1.65136 171.091 1.06681 172.282 0.64301C173.487 0.219211 174.811 0.0146179 176.252 0.0146179C177.869 0.0146179 179.458 0.321507 181.031 0.9499C182.604 1.56368 183.987 2.46973 185.178 3.65345L181.987 7.58456C181.075 6.88309 180.178 6.34238 179.266 5.96243C178.355 5.58247 177.355 5.39249 176.252 5.39249C175.149 5.39249 174.311 5.6117 173.679 6.05011C173.046 6.48852 172.723 7.1023 172.723 7.89145C172.723 8.31525 172.826 8.66598 173.046 8.97287C173.252 9.26514 173.561 9.5428 173.943 9.77662C174.326 10.0104 174.767 10.2443 175.281 10.4489C175.796 10.6681 176.34 10.8873 176.943 11.1503L180.516 12.5825C182.222 13.2547 183.56 14.19 184.531 15.3737C185.516 16.5574 186.001 18.1211 186.001 20.0647C186.001 21.2192 185.766 22.3152 185.295 23.3382C184.825 24.3612 184.148 25.2672 183.251 26.0418C182.354 26.8163 181.266 27.4301 179.957 27.8977C178.649 28.3654 177.178 28.5992 175.531 28.5992" fill="#6E6E76"/>
<path d="M104.433 8.72442C104.698 7.55532 104.977 6.3716 105.242 5.24634H105.418C105.742 6.50312 106.065 7.83298 106.389 9.17745L107.477 13.3862L101.992 18.1357L104.433 8.72442H104.448H104.433ZM98.7867 28.0584H99.419L109.021 19.3486L111.286 28.0584H117.917L109.242 0.511475H101.713L93.0371 28.0584H98.7867Z" fill="#6E6E76"/>
</g>
<defs>
<clipPath id="clip0_2455_109">
<rect width="186" height="63" fill="white"/>
</clipPath>
</defs>
</svg>
