<svg width="938" height="579" viewBox="0 0 938 579" fill="none" xmlns="http://www.w3.org/2000/svg">
<path fill-rule="evenodd" clip-rule="evenodd" d="M715.17 166.75L715.6 91.7401H674.17V174.59C674.17 202.5 703.39 225.18 739.15 225.18C774.91 225.18 804.13 202.5 804.13 174.59V91.7401L763.14 92.1801V166.75C763.14 179.4 752.67 189.43 739.59 189.43C725.63 189.42 715.17 179.39 715.17 166.75ZM938 219.08H896.57V0.600098H938V219.08ZM867.79 219.08H826.36V0.600098H867.79V219.08ZM190.57 139.27C190.57 125.32 201.91 113.98 215.86 113.98C229.81 113.98 241.15 125.32 241.15 139.27H190.57ZM282.14 162.82C282.57 160.2 282.57 157.15 282.57 154.1C283.01 109.18 253.35 84.3301 215.41 84.3301C177.47 84.3301 146.95 115.29 146.95 153.67C146.95 192.05 177.48 223 215.42 223C244.2 223 266.88 209.92 278.65 189.42L245.07 173.72C240.71 182.88 230.68 189.42 218.9 189.42C203.2 189.42 190.56 177.65 190.56 163.69C190.56 162.82 190.12 163.25 190.12 162.38L282.14 162.82ZM345.81 153.66C345.81 135.34 359.33 120.52 376.33 120.52C393.33 120.52 406.85 135.35 406.85 153.66C406.85 171.97 393.33 186.8 376.33 186.8C359.33 187.24 345.81 171.98 345.81 153.66ZM406.42 204.69C395.52 216.03 380.69 222.57 364.56 222.57C330.11 222.57 302.64 192.05 302.64 154.54C302.64 117.04 330.55 86.5101 364.56 86.5101C380.7 86.5101 395.09 93.0501 406.42 103.95V1.04008H447.85V218.64H406.42V204.69ZM588.27 182.88H548.59V48.1301H576.5C588.71 48.1301 598.74 58.1601 598.74 70.3701C598.74 82.5801 588.71 92.6101 576.5 92.6101H562.1V130.11H588.7C603.53 130.11 614.43 141.88 614.43 156.71C613.56 171.54 604.4 182.01 588.27 182.88ZM626.64 28.0701C636.23 38.1001 641.47 51.1801 641.47 65.5701C641.47 81.2701 634.49 95.2201 623.16 106.13C651.07 119.21 659.35 136.22 659.35 159.77C659.35 192.48 631 218.64 596.12 219.51L504.54 219.95V12.3801L575.62 12.8201C599.17 12.8101 616.61 17.1701 626.64 28.0701ZM66.72 46.8301H44.04V219.08H0V11.0701H72.82C73.69 11.0701 75 11.0701 75.87 11.0701C110.32 11.0701 138.66 38.5401 138.66 72.5601C138.66 101.34 118.16 125.76 91.13 132.3L152.18 219.08H99.85L55.37 151.05V100.9H65.84C81.97 100.9 95.49 88.6901 95.49 73.8601C95.5 59.0401 82.85 46.8301 66.72 46.8301Z" fill="#6E6E76"/>
<path d="M632.33 416.18C632.33 503.13 561.85 573.61 474.9 573.61C387.95 573.61 317.47 503.13 317.47 416.18C317.47 329.23 387.95 258.75 474.9 258.75C561.85 258.75 632.33 329.23 632.33 416.18Z" stroke="#25292C" stroke-width="9.5809"/>
<path fill-rule="evenodd" clip-rule="evenodd" d="M340.15 372.57C342.77 379.11 342.77 387.4 341.02 393.94C340.58 394.38 340.15 394.38 339.71 393.94C338.4 387.84 337.09 382.17 334.91 376.5C333.6 373.01 329.24 370.4 331.42 366.47C332.29 365.6 334.04 365.6 334.91 366.04C337.54 367.77 338.85 370.39 340.15 372.57ZM407.31 431.44C412.11 436.67 415.16 442.78 413.85 450.19C412.98 451.5 413.41 453.68 411.23 454.11C410.36 454.54 409.48 453.67 409.48 452.8C409.05 448.88 409.05 444.95 406.86 441.9C404.24 439.28 401.63 434.49 397.27 434.49C394.22 435.36 392.04 438.85 390.29 441.03C390.29 441.46 389.85 441.46 389.42 441.03C387.67 437.1 391.16 433.62 392.47 430.13C395.09 427.51 394.21 420.54 399.88 422.72C403.82 424.9 404.69 428.82 407.31 431.44ZM398.59 481.15C399.02 483.77 399.02 487.25 396.41 489C393.79 489.87 390.74 490.31 387.69 489.87C386.82 489.44 385.95 489 386.38 488.13C387.69 484.21 391.61 480.28 395.54 479.41C396.41 479.84 398.15 479.41 398.59 481.15ZM92.46 328.09C102.49 330.71 113.39 330.71 120.81 338.56C124.73 343.79 125.17 352.08 122.12 357.75C116.45 367.78 104.68 373.01 97.26 381.73C90.28 387.83 87.67 396.99 89.85 405.71C92.47 413.56 100.32 419.23 108.17 419.66C120.38 420.1 129.97 413.56 140 407.89C150.03 400.91 159.19 391.76 170.96 388.7C178.37 386.08 187.09 387.39 194.07 384.34C202.36 382.59 208.46 376.05 214.57 370.38C221.55 364.71 229.83 361.22 239.43 361.66C247.71 362.97 252.51 355.12 258.18 350.32C267.77 341.6 280.42 340.73 291.76 335.49C299.61 332.87 306.15 327.2 313.56 323.28C320.54 320.23 330.57 319.79 337.54 322.41C342.34 324.59 347.13 326.77 351.06 329.82L385.07 358.16C385.51 359.47 386.81 359.9 387.69 360.78C397.28 372.55 407.75 383.89 415.16 396.54C417.78 400.9 418.65 405.7 419.96 410.49C421.7 429.68 426.94 446.68 433.04 463.26C434.79 465.88 438.27 467.62 440.02 470.24C445.25 477.65 448.74 487.25 457.46 492.04L462.69 494.66C463.12 495.1 463.12 495.97 462.69 496.41L461.82 497.28C451.35 499.02 443.51 492.48 438.27 485.07C434.78 478.53 430.42 471.11 423.01 468.5C422.57 468.5 422.14 468.94 422.14 468.94C423.01 471.12 425.63 473.3 426.5 475.48C429.55 480.28 432.17 485.07 433.48 489.87C435.22 495.1 440.89 499.03 445.69 502.08L452.67 505.57C453.54 506 453.98 507.31 453.11 508.19L452.24 508.63C440.9 509.07 430.87 505.14 423.02 496.86C421.28 494.68 418.66 492.94 416.04 492.94C410.81 497.3 406.01 501.66 399.03 502.1C392.05 500.79 384.2 500.79 378.1 503.41C372.43 505.59 366.76 507.77 360.22 508.21C357.17 508.21 353.68 506.9 352.81 503.85C352.81 500.36 350.19 496 352.38 492.08L356.74 485.54C356.74 484.67 356.3 483.8 355.43 483.8C353.68 483.37 350.63 486.42 350.2 483.37C350.63 476.83 356.74 472.9 361.1 468.54C361.97 463.31 364.15 458.95 367.64 455.02C367.64 454.58 367.2 453.71 366.33 453.71C361.1 454.58 355.43 455.89 349.76 455.89C344.96 458.51 339.29 460.25 334.06 458.51C332.75 457.64 333.19 456.33 333.62 455.46C339.29 447.61 341.47 437.58 340.16 427.55C339.72 427.11 339.72 426.24 338.85 426.24C337.98 426.24 337.98 427.11 337.54 427.55C336.23 436.71 333.18 444.12 328.38 451.53C324.46 455.46 318.79 455.02 313.99 456.76C312.68 457.2 311.37 458.51 311.37 459.81C311.37 462.86 313.55 465.48 314.86 468.1L325.76 488.16C326.19 493.83 323.58 499.06 322.27 503.86C322.71 504.73 323.58 504.29 324.45 503.86C328.37 500.37 330.99 496.01 332.3 491.21C332.74 489.03 331.87 486.41 330.99 484.67L319.65 462.43C320.52 461.12 322.27 461.12 323.57 460.69C326.19 460.69 328.37 462 330.98 462.87C333.6 469.85 336.21 476.39 341.01 482.49C341.88 485.98 343.19 491.21 340.57 494.26C337.95 499.06 335.34 503.42 332.28 508.21C329.23 511.26 324.87 510.83 320.94 511.26H317.45C307.42 516.49 296.95 519.98 286.05 523.47C281.25 525.65 276.02 523.9 272.1 520.85C268.18 517.8 266.87 513.44 264.25 509.95C261.2 506.46 256.84 509.51 253.35 507.33C250.3 502.53 247.68 498.17 245.06 493.38C245.06 492.07 245.06 490.76 246.37 489.89C250.29 488.58 254.22 488.58 258.58 488.15C262.5 487.71 266.43 488.58 269.05 491.2C274.28 497.3 276.03 505.15 283.88 509.08C289.55 509.51 294.78 507.77 300.02 505.15C303.07 503.41 306.56 500.79 306.56 497.3C306.13 489.89 300.89 484.22 295.22 479.86C288.68 476.37 282.14 472.01 277.34 465.9C275.16 462.85 274.29 458.92 272.98 455.44C272.54 454.57 271.24 454.57 270.36 455C267.74 457.18 269.93 460.67 269.93 463.29C270.36 465.03 271.24 466.78 270.36 468.52C266.87 471.57 261.64 469.83 256.84 470.26C247.68 469.83 238.96 465.9 229.37 466.77C220.21 467.2 207.57 473.31 200.59 464.15C197.1 455.43 197.97 444.96 199.72 436.24C199.72 435.37 198.85 434.5 197.98 434.5C197.11 434.06 196.24 434.5 195.8 435.37C193.62 444.09 192.75 453.68 191 462.84C187.51 470.69 181.84 479.41 173.56 483.34C166.15 487.26 157.86 488.57 149.58 489.01C133.88 489.45 118.62 492.5 109.02 506.02C108.15 507.33 106.84 508.2 107.28 509.95C107.72 510.38 109.02 510.82 109.46 510.38C120.36 498.17 134.32 493.37 150.02 493.81C165.28 493.81 180.11 491.19 189.7 478.11C192.32 475.06 193.62 472.01 195.8 468.95C197.54 468.95 198.85 471.13 200.16 472C200.59 476.36 196.67 479.41 195.36 483.34C193.62 487.7 191.44 492.5 187.07 494.68C181.84 495.99 177.91 499.48 173.55 502.09C168.75 504.27 163.08 505.14 157.41 503.84C150.43 502.53 141.28 500.79 134.73 503.84C131.24 506.02 128.62 509.94 125.14 511.69C120.34 513.43 116.42 517.79 110.75 517.36C106.83 516.49 102.46 513.87 98.98 517.36C95.06 521.29 93.75 527.83 88.51 530.01C82.41 533.5 75.86 530.01 69.32 529.58C70.19 523.48 71.06 517.37 74.99 513.01C77.61 512.57 79.79 512.14 81.53 510.39C84.15 508.21 85.89 505.16 87.64 502.54C92.87 499.05 99.41 496.44 102.9 490.77C105.52 485.1 105.52 480.3 109.88 475.51L112.06 474.64L123.4 473.77C128.2 471.59 132.12 469.41 136.48 466.36C137.79 465.05 138.22 462.87 137.79 461.13C135.61 455.46 133.87 451.97 132.56 446.3C131.25 440.19 132.12 434.53 131.25 427.55C130.81 427.11 130.38 425.8 129.51 425.8C122.1 427.55 114.68 429.73 106.4 428.42C95.06 427.11 83.72 419.7 79.36 408.36C75.44 398.77 76.31 384.81 83.72 376.96C90.7 368.67 98.98 362.13 106.83 355.59C108.14 354.72 108.14 352.97 108.57 351.67C108.57 349.92 106.83 348.62 105.52 348.18C100.29 346.87 94.62 348.62 89.39 346.44C80.67 343.39 73.69 335.1 72.82 325.94C72.38 322.01 73.26 318.53 75.44 315.04C81.56 321.55 86.36 326.34 92.46 328.09ZM67.61 515.6V516.91C65.43 521.71 64.12 527.81 62.38 533.48C58.46 533.04 55.4 531.73 52.35 530.86C51.48 529.99 52.35 529.12 52.35 528.24C55.84 524.75 54.97 520.83 55.84 516.03C56.28 513.41 58.89 511.23 61.07 509.93C64.12 510.8 65.86 513.42 67.61 515.6ZM86.36 498.16C84.18 502.52 81.13 507.32 76.77 509.93C75.03 510.36 72.85 510.36 71.54 509.49C70.67 508.62 68.92 507.75 68.92 506C69.36 504.26 68.48 502.08 70.23 501.2C73.72 499.02 77.21 496.84 80.26 494.22C81.13 493.78 82.44 493.35 83.31 494.22C84.18 495.11 85.92 496.41 86.36 498.16ZM296.11 496.41C296.55 498.15 299.16 500.33 297.42 502.08C293.93 504.7 290.44 506.44 286.08 505.57C282.59 502.95 283.03 498.16 279.98 495.1C279.11 492.48 275.18 492.48 276.06 489.87L277.37 489C282.17 489 286.53 489 291.32 488.13C295.67 488.13 294.37 493.36 296.11 496.41Z" fill="#6E6E76"/>
<path fill-rule="evenodd" clip-rule="evenodd" d="M560.75 427.95C563.37 431.44 565.11 434.93 566.85 438.85C567.28 439.72 566.85 440.59 566.41 441.47C565.98 442.34 565.1 443.22 563.79 442.34C560.74 441.47 561.17 436.67 557.69 437.11C555.07 437.11 553.33 439.29 551.15 440.6C547.23 444.09 542.43 447.58 541.56 452.37C540.69 454.11 541.13 456.73 539.38 458.04C538.51 458.48 537.2 457.61 537.2 456.73C536.76 450.19 538.94 443.65 543.74 439.29C548.54 435.37 551.59 430.13 555.51 425.77C558.13 424.9 559.88 426.21 560.75 427.95ZM562.06 483.77C562.93 485.51 564.68 487.69 563.37 489.87C561.63 491.18 558.57 490.31 556.39 490.31C553.77 489 553.34 485.95 552.9 482.9C552.9 482.03 552.9 481.59 553.77 480.72C557.26 480.72 560.31 481.15 562.06 483.77ZM625.29 355.56C626.6 357.3 625.29 359.05 624.42 360.36C618.32 366.03 611.34 371.7 606.98 378.67C605.23 380.85 604.36 383.47 603.06 385.65C603.06 386.08 602.62 386.08 602.19 386.08C600.88 382.59 602.63 379.1 603.5 375.61C606.55 367.76 613.09 359.91 620.07 354.68C621.36 353.82 624.42 353.38 625.29 355.56ZM649.27 328.53C653.63 331.58 655.81 337.69 661.04 339C670.2 341.18 679.35 343.36 687.64 347.29C693.74 350.34 698.98 354.7 704.21 359.06C709.44 361.68 715.55 361.68 720.78 363.42C728.63 365.6 735.17 371.27 742.15 376.07C751.31 383.48 764.39 382.17 774.86 386.97C791.43 392.2 804.95 405.29 820.65 413.14C828.5 417.5 840.71 419.24 848.99 414.45C854.22 410.52 857.71 405.73 856.84 398.75C853.79 381.74 835.04 372.58 825.88 358.63C824.14 355.14 822.83 350.78 823.7 346.86C826.75 338.57 835.91 334.22 843.32 330.73C849.43 327.68 856.84 328.55 862.51 325.06C864.69 323.75 866 322.01 867.74 320.7C869.05 320.7 869.05 322.01 869.48 322.88C871.22 332.91 869.48 343.38 860.76 349.04C857.27 351.22 853.35 352.53 849.42 353.4C845.93 354.71 839.39 352.09 839.83 357.76C840.7 360.38 843.32 362.56 845.5 364.3C857.27 373.89 867.74 386.54 869.48 401.37C869.92 413.14 862.07 423.17 851.6 427.97C844.19 431.02 834.59 432.33 826.75 430.15C824.57 429.72 821.08 427.97 819.77 430.59C819.34 433.64 821.52 436.26 821.52 439.31C822.39 444.98 822.39 451.96 820.65 457.19C819.78 461.55 815.42 466.35 819.34 470.71C823.26 476.38 830.68 474.63 836.78 475.94C840.27 476.37 841.14 480.3 842.45 482.92C843.76 485.97 843.76 489.9 845.07 492.51C845.07 498.61 852.05 501.23 855.54 505.15C859.9 509.95 863.39 517.8 870.8 517.36C872.98 522.59 874.72 526.95 875.6 533.06L874.73 533.93C868.63 533.93 861.21 535.68 856.42 531.31C851.19 527.82 849.88 518.66 842.46 521.28C839.41 523.9 834.61 524.77 830.69 523.02C827.2 521.71 824.59 518.22 821.1 516.48C811.07 509.07 797.99 505.58 784.91 508.19C777.5 510.37 771.39 505.14 765.29 501.21C757.44 497.72 755.26 489.44 753.52 482.02L752.21 473.3C752.21 472.43 753.08 471.56 753.96 471.56H755.27C759.63 482.03 768.35 493.36 779.69 497.29C790.15 501.65 799.75 495.98 811.09 498.16C821.56 499.47 829.84 506.01 838.13 512.55C839 512.55 839.44 512.12 839.87 511.24V510.81C830.28 498.6 817.19 492.5 801.49 493.37C788.85 495.99 775.76 491.62 768.35 480.72C764.42 474.62 761.37 468.07 760.06 460.66C758.75 452.37 757.01 443.22 754.39 435.37C753.52 434.94 752.65 434.06 751.77 434.5L750.9 435.81C752.21 443.66 754.39 453.69 751.77 461.97C749.59 468.51 743.05 471.13 736.51 471.56C729.97 472 724.3 470.69 717.76 470.69C702.5 470.25 689.41 476.36 673.72 474.61C675.03 471.12 677.64 467.2 676.34 462.84C675.91 461.97 674.6 461.97 673.72 461.97C670.67 463.72 671.1 467.64 669.36 469.82C665.87 475.49 659.77 480.29 653.66 481.59C649.3 485.08 644.94 489.88 641.45 493.8C640.14 495.11 640.14 497.29 640.58 499.47C643.63 506.88 652.35 507.76 659.33 509.94C662.82 510.37 665.87 509.07 667.18 506.01C670.23 501.21 670.67 493.8 677.21 492.93H692.04C693.35 493.37 694.22 494.24 694.66 495.55L694.23 497.73C691.18 501.65 689.43 506.89 685.51 509.5C683.33 510.37 679.84 509.5 678.53 511.68C677.66 516.91 676.35 522.15 671.55 524.76C668.06 528.25 662.39 526.51 658.03 525.2C650.18 522.15 641.9 520.84 634.05 518.22C630.56 517.35 629.25 512.99 625.76 512.12C622.27 511.25 618.35 513.86 615.73 510.81C613.99 507.32 613.11 504.27 612.24 500.34C610.93 497.72 610.06 495.11 609.62 492.05C609.19 489.43 609.62 487.69 610.49 485.51L621.39 465.89C622.26 464.58 623.13 463.27 624.44 462.84C627.06 463.27 629.67 464.58 632.29 465.89L631.86 467.2L620.96 484.21C618.34 489.88 620.96 495.98 623.58 500.78C624.01 501.21 624.45 502.09 624.89 501.65C624.46 498.16 624.02 494.67 624.89 491.18C625.76 488.13 627.51 484.64 629.69 482.02L638.41 468.94C639.28 466.76 639.28 463.27 637.54 461.53C633.62 457.61 628.38 456.73 624.89 451.5C617.48 441.91 617.04 430.57 616.17 418.36C616.17 417.49 615.3 416.18 613.99 415.74C613.12 415.31 612.25 416.61 611.81 417.05C609.63 424.9 610.94 434.49 613.12 441.47C614.43 447.14 617.04 452.37 619.22 457.61C619.65 458.48 618.78 459.79 617.91 459.79C612.24 460.23 606.14 459.79 600.47 458.92C593.06 457.61 587.39 451.94 581.28 447.58C580.41 447.15 579.97 448.02 579.54 448.45C581.28 456.73 590.44 461.53 593.49 469.38C595.23 475.48 601.34 480.28 602.65 487.26C602.65 488.13 601.78 489.44 600.91 489.88C598.73 490.32 596.55 489.01 594.81 490.32C594.37 493.81 596.99 497.73 595.24 501.22C593.06 504.27 590.44 508.2 586.52 508.2C579.11 505.58 571.69 502.53 563.84 500.35C558.17 499.91 552.94 500.79 547.71 501.22C542.91 500.35 539.42 495.99 535.5 492.93C534.19 492.5 533.32 492.5 532.45 493.37C524.16 501.66 515.01 510.81 502.36 510.38C501.49 510.38 501.05 509.51 501.05 508.64V507.77C506.72 502.97 513.26 497.74 515.44 490.76C517.18 485.09 522.42 480.73 524.16 475.06C524.6 474.19 523.73 473.75 522.85 473.31L521.54 474.18C515.44 480.72 510.64 487.26 506.28 494.68C501.48 499.48 494.94 502.09 487.97 500.35C487.1 499.91 487.1 498.61 487.53 497.73C513.7 481.59 516.75 453.25 523.72 427.52C528.95 410.51 532.44 392.63 545.96 378.68C566.02 356.88 591.31 343.36 613.12 324.17C616.61 321.12 619.66 318.5 624.02 318.07C633.14 318.5 641.42 322.42 649.27 328.53ZM888.24 513.86C890.42 516.91 889.55 521.27 890.42 524.76C890.85 527.38 893.91 529.12 892.6 531.74L883.44 534.79C881.7 534.79 882.57 532.61 881.7 531.74C880.83 526.51 879.52 522.58 877.78 517.35C877.34 514.3 880.4 512.12 882.58 510.37C884.75 510.37 886.5 512.55 888.24 513.86ZM866.88 495.11C870.37 498.16 874.73 500.34 877.34 503.83C877.78 505.57 876.47 507.32 875.6 508.63C874.29 509.94 872.55 510.81 870.37 510.81C868.19 510.81 866.45 509.5 865.14 507.76C862.96 504.71 859.91 501.66 859.04 498.17C860.77 495.98 863.82 492.49 866.88 495.11ZM664.97 491.62C664.54 495.55 663.23 499.47 661.48 503.39C660.17 506.01 656.68 505.13 654.07 504.7C651.45 503.83 647.53 503.39 647.09 499.9C646.65 496.41 648.4 493.36 650.14 490.74C654.06 490.31 658.43 491.18 662.35 490.31C663.66 490.31 664.97 490.75 664.97 491.62Z" fill="#6E6E76"/>
</svg>
