<svg width="513" height="169" viewBox="0 0 513 169" fill="none" xmlns="http://www.w3.org/2000/svg">
<path d="M88.1002 45.0237C92.8665 38.6687 98.8684 35.3147 106.636 35.4912C114.403 35.756 120.316 39.11 123.67 46.0828C125.877 43.9645 127.73 41.6697 130.025 39.9044C137.792 33.8142 150.149 33.9907 157.387 40.0809C161.271 43.3467 163.212 47.7598 164.095 52.7026C164.448 54.8209 164.625 57.0275 164.625 59.2341C164.713 71.944 164.625 84.7422 164.625 97.4521C164.625 99.5704 164.625 99.5704 162.594 99.5704C159.329 99.5704 155.975 99.4822 152.709 99.5704C151.473 99.5704 151.12 99.2174 151.12 97.9817C151.12 85.2718 151.12 72.4736 151.12 59.7637C151.12 56.6744 150.502 53.7617 148.649 51.2021C144.147 45.2002 134.35 45.5533 129.672 51.7317C127.201 54.9974 126.407 58.7928 126.407 62.7646C126.407 74.3271 126.407 85.9779 126.407 97.5404C126.407 99.0408 126.053 99.6587 124.465 99.5704C121.287 99.3939 118.11 99.3939 114.932 99.5704C113.255 99.6587 112.99 99.0408 112.99 97.5404C113.079 84.8304 113.079 72.2088 112.99 59.4989C112.99 55.9683 112.196 52.7908 109.548 50.2312C104.076 44.8471 94.1021 46.7007 90.3068 53.85C88.7181 56.7627 88.2768 59.9402 88.2768 63.2059C88.2768 74.6802 88.2768 86.0661 88.2768 97.5404C88.2768 99.5704 88.2768 99.5704 86.2467 99.6587C82.981 99.6587 79.6269 99.6587 76.3612 99.6587C75.2138 99.6587 74.7725 99.3939 74.7725 98.1582C74.7725 78.299 74.7725 58.3514 74.7725 38.4922C74.7725 37.5213 74.949 37.08 76.0964 37.08C79.7152 37.1682 83.334 37.1682 86.8645 37.08C87.9237 37.08 88.2768 37.433 88.2768 38.4039C88.012 40.434 88.1002 42.5523 88.1002 45.0237Z" fill="#6E6E76"/>
<path d="M226.674 91.0972C225.173 92.4211 223.761 93.9216 222.172 95.2455C210.61 104.601 193.663 101.865 185.19 89.1554C180.247 81.653 178.747 73.3562 179.364 64.5299C179.806 57.8219 181.836 51.5552 185.896 46.0829C195.517 33.0199 215.288 32.1373 225.35 43.5232C225.614 43.788 225.879 43.9646 226.321 44.3176C226.321 29.4894 226.321 14.8376 226.321 0.00939342C227.38 0.00939342 228.439 0.00939342 229.498 0.00939342C232.411 0.00939342 235.235 0.0976568 238.148 0.00939342C239.56 -0.0788699 239.913 0.45071 239.913 1.77466C239.913 23.3992 239.913 45.112 239.913 66.7365C239.913 76.975 239.913 87.3018 239.913 97.5404C239.913 99.0409 239.472 99.4822 237.971 99.4822C234.794 99.3939 231.616 99.3939 228.439 99.4822C227.115 99.4822 226.762 99.0409 226.762 97.7169C226.674 95.4221 226.674 93.2155 226.674 91.0972ZM192.692 68.0604C192.604 72.5619 193.575 76.975 196.134 80.9469C199.4 86.1544 204.078 88.8906 210.345 88.7141C216.788 88.5375 221.29 85.1835 223.937 79.4464C227.291 72.1205 227.291 64.5299 224.291 57.1158C221.907 51.2904 217.406 47.9364 211.051 47.4951C204.961 47.0538 200.018 49.4369 196.576 54.4679C193.663 58.6163 192.692 63.1177 192.692 68.0604Z" fill="#6E6E76"/>
<path d="M468.427 45.4649C471.075 43.2583 473.458 40.787 476.194 39.0217C487.315 31.7841 507.528 34.3437 511.941 54.1147C512.559 56.9392 512.912 59.8518 512.912 62.7645C513 74.4153 512.912 86.1543 513 97.8051C513 99.0408 512.735 99.4821 511.411 99.3938C507.881 99.3055 504.438 99.3055 500.908 99.3938C499.672 99.3938 499.319 99.0408 499.319 97.8051C499.319 86.4191 499.319 74.9449 499.319 63.5589C499.319 60.4697 498.878 57.557 497.554 54.7326C493.582 45.9945 481.931 43.9644 474.694 50.7607C470.722 54.4678 468.692 59.0575 468.692 64.4415C468.604 75.3862 468.692 86.3308 468.692 97.2755C468.692 99.4821 468.692 99.4821 466.485 99.4821C463.396 99.4821 460.307 99.4821 457.218 99.4821C455.187 99.4821 455.188 99.4821 455.188 97.452C455.188 69.7373 455.188 42.0226 455.188 14.308C455.188 10.0713 455.188 5.74641 455.188 1.50977C455.188 0.362342 455.541 0.00927734 456.688 0.00927734C460.219 0.0975407 463.749 0.0975407 467.368 0.00927734C468.427 0.00927734 468.78 0.362336 468.78 1.4215C468.78 14.9258 468.78 28.3418 468.78 41.8461C468.692 43.0818 468.515 44.3175 468.427 45.4649Z" fill="#6E6E76"/>
<path d="M317.144 86.8606C317.144 90.9207 317.144 94.7161 317.055 98.5114C317.055 98.8644 316.261 99.394 315.82 99.394C308.67 99.7471 302.757 98.1583 299.756 89.2437C299.667 89.0672 299.579 88.8907 299.314 88.5376C298.873 89.0672 298.52 89.5085 298.167 89.9498C291.724 98.1583 282.986 101.159 272.924 100.63C268.157 100.365 263.744 98.9527 260.037 95.687C251.829 88.6259 251.917 75.3864 260.214 68.3253C264.892 64.3535 270.364 62.6765 276.278 61.9704C283.074 61.176 289.782 61.9704 296.49 63.2943C296.931 63.3826 297.373 63.4708 297.814 63.4708C299.314 55.2623 294.989 48.7309 287.399 47.4069C280.691 46.1712 275.042 48.113 270.452 53.144C270.099 53.4971 269.834 53.8501 269.393 54.2914C266.304 51.9083 263.215 49.6135 260.214 47.2304C260.037 47.0539 260.214 46.1712 260.478 45.8182C263.921 41.2285 268.51 38.051 273.983 36.2857C282.544 33.6378 291.018 33.9026 299.05 38.051C306.287 41.7581 310.436 47.9365 311.053 55.9684C311.671 64.0887 311.318 72.2972 311.406 80.5057C311.406 81.3 311.406 82.0944 311.406 82.8888C311.495 85.1836 312.819 86.5076 315.113 86.5958C315.731 86.8606 316.349 86.8606 317.144 86.8606ZM284.927 70.9732C284.927 71.0615 284.927 71.238 284.927 71.3263C283.957 71.3263 282.897 71.238 281.926 71.3263C277.778 71.6793 273.895 72.562 270.717 75.4747C265.863 79.9761 267.628 87.2137 273.983 88.979C283.427 91.5386 294.901 86.3311 297.814 73.8859C298.079 72.915 297.549 72.6502 296.843 72.562C292.783 72.0324 288.811 71.5028 284.927 70.9732Z" fill="#6E6E76"/>
<path d="M57.5611 57.4689C57.5611 63.6473 57.7376 69.8257 57.5611 75.9159C57.0315 88.361 47.3225 98.7761 34.9657 100.453C27.4633 101.424 20.0492 100.983 13.2529 97.0991C4.95614 92.2446 0.542973 84.7422 0.18992 75.2981C-0.163134 63.0295 0.101657 50.6726 0.0133933 38.3157C0.0133933 37.2565 0.366447 36.9035 1.33734 36.9917C4.86788 36.9917 8.39841 37.08 12.0172 36.9917C13.3412 36.9917 13.6942 37.4331 13.6942 38.6688C13.6059 50.143 13.6059 61.529 13.6942 73.0032C13.6942 75.3863 14.1355 77.7694 14.8416 80.0643C16.2538 84.5657 19.5196 87.3901 24.1093 88.2728C29.9347 89.4202 35.6718 89.2436 40.1732 84.654C43.3507 81.3882 44.1451 77.1516 44.1451 72.8267C44.2333 61.6172 44.2333 50.4078 44.1451 39.1983C44.1451 37.6979 44.4099 37.08 46.0869 37.1683C49.3526 37.2565 52.5301 37.2565 55.7958 37.1683C57.2963 37.1683 57.7376 37.5213 57.7376 39.1101C57.6494 45.2885 57.7376 51.5552 57.7376 57.7336C57.6494 57.4688 57.5611 57.4689 57.5611 57.4689Z" fill="#6E6E76"/>
<path d="M442.566 88.0962C440.183 91.4502 437.27 94.1863 433.916 96.3046C420.059 104.866 397.64 101.159 388.99 82.0942C382.194 67.0895 387.137 49.3485 400.376 40.6105C412.909 32.3137 429.944 34.2555 440.183 45.1119C440.536 45.4649 440.712 46.3476 440.536 46.6124C437.8 49.3485 434.887 51.9964 432.151 54.7326C430.915 53.6734 429.856 52.6143 428.709 51.7316C419.706 44.6706 406.643 47.6715 401.876 57.9983C398.522 65.3242 398.611 72.7383 402.671 79.7994C408.585 89.9497 422.795 91.3619 430.827 82.7121C431.445 82.006 432.063 81.2999 432.769 80.5055C436.034 82.8886 439.3 85.4483 442.566 88.0962Z" fill="#6E6E76"/>
<path d="M370.102 44.5822C367.189 47.0536 364.365 49.3484 361.717 51.6433C360.216 50.4959 358.892 49.2602 357.303 48.2893C354.479 46.7006 351.39 45.9945 348.124 47.0536C345.918 47.7597 344.505 49.3484 344.064 51.6433C343.711 53.8499 344.594 55.7917 346.447 56.8508C349.889 58.8809 353.596 60.4696 357.127 62.4114C360.922 64.4415 364.894 66.2068 368.248 68.6781C378.663 76.357 376.015 91.5383 365.777 97.2754C361.011 99.9233 355.891 100.806 350.596 100.629C343.799 100.276 337.444 98.5111 332.06 94.098C330.207 92.5975 328.618 90.6557 326.764 88.8904C329.942 86.1543 332.855 83.5946 335.856 80.9467C336.209 81.388 336.562 81.7411 336.915 82.1824C341.681 87.3899 347.506 89.8613 354.567 88.8904C356.333 88.6256 358.186 87.5665 359.687 86.419C362.246 84.3007 362.423 80.7702 360.04 78.5636C358.186 76.7983 355.891 75.4744 353.596 74.327C350.066 72.5617 346.359 71.1495 342.828 69.3842C339.563 67.7955 336.562 65.7654 334.355 62.8527C328.794 55.4386 330.648 44.9353 338.503 39.3747C347.683 32.8432 362.776 34.9615 369.66 43.7879C369.749 44.0526 369.837 44.2292 370.102 44.5822Z" fill="#6E6E76"/>
<path d="M297.814 149.616C297.461 152.44 297.108 155.265 296.843 158.089C296.49 161.09 296.137 164.091 295.872 167.092C295.784 168.151 295.343 168.504 294.283 168.416C293.577 168.328 292.871 168.416 291.9 168.416C292.165 166.121 292.43 164.091 292.695 162.061C293.489 156.324 294.372 150.498 295.078 144.761C295.166 143.879 295.519 143.526 296.402 143.526C299.491 143.437 299.491 143.437 300.462 146.35C302.227 151.469 303.992 156.589 305.846 161.973C306.111 161.355 306.287 161.09 306.376 160.737C308.141 155.529 309.994 150.41 311.671 145.203C312.113 143.879 312.642 143.349 314.054 143.437C316.526 143.614 316.614 143.437 316.879 145.82C317.85 152.793 318.821 159.854 319.792 166.915C319.88 167.357 319.792 167.71 319.792 168.416C318.821 168.416 317.762 168.504 316.791 168.328C316.438 168.239 316.085 167.533 315.996 167.092C315.29 161.62 314.672 156.147 314.054 150.675C314.054 150.41 313.966 150.145 313.613 149.792C313.084 151.381 312.554 152.882 312.024 154.47C310.612 158.707 309.112 162.944 307.7 167.18C307.346 168.239 306.817 168.504 305.846 168.504C304.787 168.504 304.257 168.239 303.904 167.18C302.051 161.531 300.109 155.971 298.167 150.322C298.079 150.057 297.991 149.881 297.902 149.616C297.991 149.616 297.902 149.616 297.814 149.616Z" fill="#6E6E76"/>
<path d="M197.9 155.971C197.9 148.733 203.637 143.173 211.051 143.173C217.759 143.173 223.496 149.086 223.496 156.059C223.496 163.12 217.759 168.769 210.522 168.769C203.46 168.681 197.9 163.12 197.9 155.971ZM201.519 155.971C201.519 161.443 205.314 165.415 210.61 165.415C215.817 165.415 219.789 161.443 219.789 155.971C219.789 150.675 215.817 146.438 210.61 146.438C205.402 146.527 201.519 150.587 201.519 155.971Z" fill="#6E6E76"/>
<path d="M416.263 168.416C415.116 168.416 414.057 168.504 413.174 168.328C412.733 168.239 412.203 167.71 412.027 167.269C410.967 164.974 409.997 162.679 409.114 160.384C408.673 159.325 408.143 158.884 406.907 158.884C402.847 159.06 403.465 158.354 403.377 162.326C403.377 163.826 403.289 165.239 403.377 166.739C403.465 168.063 402.936 168.504 401.7 168.416C401.17 168.328 400.552 168.416 399.846 168.416C399.758 167.798 399.758 167.269 399.758 166.739C399.758 159.501 399.758 152.352 399.758 145.114C399.758 143.702 400.199 143.349 401.523 143.437C403.818 143.526 406.113 143.437 408.408 143.526C411.762 143.614 414.41 145.468 415.381 148.38C416.528 151.734 415.557 155.441 412.998 157.471C412.203 158.089 412.027 158.619 412.468 159.501C413.615 161.885 414.586 164.356 415.645 166.827C415.822 167.269 415.999 167.71 416.263 168.416ZM406.378 146.792C405.936 146.792 405.495 146.792 405.142 146.792C403.818 146.615 403.289 147.056 403.377 148.557C403.465 150.499 403.465 152.529 403.377 154.47C403.377 155.353 403.642 155.794 404.613 155.794C405.848 155.706 406.996 155.794 408.231 155.706C410.879 155.53 412.291 153.853 412.291 151.116C412.291 148.557 410.703 146.968 408.143 146.792C407.525 146.792 406.907 146.792 406.378 146.792Z" fill="#6E6E76"/>
<path d="M247.062 168.151C246.798 168.239 246.798 168.328 246.709 168.328C243.355 168.681 243.355 168.681 242.032 165.591C241.237 163.738 240.443 161.973 239.737 160.119C239.384 159.237 238.942 158.883 237.971 158.972C233.47 159.06 234.176 158.266 234.088 162.679C234.088 164.356 234.088 166.121 234.088 167.798C234.088 167.886 234 167.975 234 168.239C232.94 168.239 231.881 168.239 230.734 168.239C230.734 167.886 230.646 167.445 230.646 167.092C230.646 159.854 230.646 152.617 230.646 145.379C230.646 143.879 231.087 143.437 232.587 143.526C235.323 143.702 238.06 143.526 240.708 143.79C243.797 144.143 245.739 146.174 246.445 149.263C247.151 152.352 246.621 155.265 244.062 157.295C243.002 158.177 242.914 158.795 243.444 159.854C244.679 162.591 245.827 165.327 247.062 168.151ZM234.176 151.205C234.088 151.205 234.088 151.205 234 151.205C234.176 152.617 234.264 154.029 234.441 155.529C236.206 155.529 238.06 155.529 239.825 155.529C240.001 155.529 240.266 155.529 240.443 155.353C241.237 154.647 242.208 154.029 242.649 153.146C243.532 151.469 243.091 148.998 241.767 147.939C239.648 146.174 237 146.438 234.706 146.968C233.205 147.321 234.353 149.439 234 150.763C234.176 150.94 234.176 151.116 234.176 151.205Z" fill="#6E6E76"/>
<path d="M97.9856 143.702C101.516 143.172 101.516 143.172 101.516 146.438C101.516 148.115 101.428 149.792 101.516 151.469C101.516 151.911 101.957 152.705 102.222 152.705C105.047 152.793 107.959 152.793 110.96 152.793C110.96 149.704 110.96 146.791 110.96 143.702C112.196 143.702 113.255 143.702 114.403 143.702C114.403 151.911 114.403 160.119 114.403 168.416C113.343 168.416 112.284 168.416 110.96 168.416C110.96 165.944 110.96 163.473 110.96 161.09C110.96 159.854 111.049 158.619 110.96 157.295C110.96 156.942 110.519 156.235 110.166 156.235C107.342 156.147 104.517 156.147 101.516 156.147C101.516 158.266 101.516 160.119 101.516 162.061C101.516 163.65 101.428 165.327 101.516 166.915C101.604 168.239 101.075 168.592 99.9274 168.416C99.3095 168.328 98.6917 168.416 98.0739 168.416C97.9856 160.119 97.9856 151.911 97.9856 143.702Z" fill="#6E6E76"/>
<path d="M346.094 168.328C345.917 168.416 345.829 168.416 345.829 168.416C342.563 168.592 342.563 168.592 341.593 165.503C341.151 164.179 341.151 162.414 340.269 161.796C339.298 161.09 337.532 161.531 336.208 161.531C332.325 161.531 332.325 161.531 331.177 165.327C331.177 165.415 331.089 165.503 331.089 165.591C330.118 168.769 330.118 168.769 326.5 168.239C327.029 166.562 327.559 164.885 328.088 163.208C330.118 157.03 332.06 150.852 334.09 144.585C334.355 143.614 334.885 143.261 335.767 143.437C336.738 143.702 338.15 142.643 338.68 144.32C341.151 152.087 343.711 159.854 346.182 167.622C346.006 167.975 346.006 168.063 346.094 168.328ZM333.208 158.089C335.414 158.089 337.268 158.089 339.298 158.089C338.327 154.735 337.356 151.558 336.385 148.38C336.297 148.38 336.12 148.468 336.032 148.468C335.149 151.646 334.178 154.823 333.208 158.089Z" fill="#6E6E76"/>
<path d="M359.687 155.794C358.01 157.648 356.686 159.413 357.039 161.884C357.215 163.65 357.039 165.415 357.039 167.18C357.127 168.681 356.068 168.328 355.185 168.328C354.303 168.328 353.42 168.592 353.42 167.092C353.42 159.59 353.42 152.087 353.42 144.585C353.42 142.908 354.567 143.526 355.45 143.437C356.333 143.349 357.127 143.437 357.039 144.673C356.95 147.497 357.039 150.322 357.039 153.058C357.215 153.235 357.392 153.411 357.657 153.499C357.833 153.146 357.921 152.705 358.098 152.352C359.687 150.057 361.54 147.851 362.952 145.467C364.276 143.261 366.042 143.084 368.425 143.526C366.836 145.732 365.512 147.851 363.835 149.792C362.158 151.734 362.158 153.235 363.394 155.441C365.6 159.148 367.454 163.12 369.484 166.915C369.66 167.268 369.837 167.621 370.102 168.328C368.778 168.328 367.719 168.416 366.571 168.239C366.218 168.151 365.777 167.71 365.512 167.268C363.747 163.914 362.07 160.56 360.393 157.206C360.304 156.942 360.04 156.5 359.687 155.794Z" fill="#6E6E76"/>
<path d="M391.638 165.239C391.638 166.386 391.638 167.269 391.638 168.328C386.96 168.328 382.458 168.328 377.692 168.328C377.692 160.119 377.692 151.911 377.692 143.614C382.282 143.614 386.96 143.614 391.638 143.614C391.638 144.585 391.638 145.556 391.638 146.791C388.813 146.791 385.989 146.791 383.253 146.791C381.223 146.791 381.223 146.791 381.134 148.822C381.134 150.057 381.134 151.205 381.134 152.44C381.134 153.411 381.487 153.853 382.458 153.853C384.224 153.853 385.989 153.941 387.754 153.853C388.902 153.764 389.166 154.294 389.166 155.353C389.166 156.412 389.078 157.207 387.754 157.118C386.077 157.03 384.312 157.118 382.635 157.118C381.576 157.118 381.134 157.471 381.134 158.531C381.223 160.384 381.223 162.149 381.134 164.003C381.134 165.062 381.487 165.327 382.547 165.327C385.018 165.239 387.489 165.327 389.872 165.327C390.402 165.239 390.932 165.239 391.638 165.239Z" fill="#6E6E76"/>
<path d="M123.935 143.614C128.613 143.614 133.203 143.614 137.881 143.614C137.881 144.673 137.881 145.644 137.881 146.791C135.056 146.791 132.32 146.791 129.584 146.791C127.377 146.791 127.377 146.791 127.377 148.91C127.377 150.146 127.377 151.293 127.377 152.529C127.377 153.588 127.819 153.941 128.79 153.853C130.555 153.764 132.32 153.853 134.085 153.853C135.145 153.853 135.409 154.294 135.409 155.265C135.321 156.147 135.586 157.118 134.174 157.03C132.32 156.942 130.555 156.942 128.701 157.118C128.26 157.118 127.554 157.736 127.466 158.089C127.377 160.384 127.377 162.767 127.377 165.327C130.996 165.327 134.35 165.327 137.881 165.327C137.881 166.474 137.881 167.357 137.881 168.416C133.203 168.416 128.613 168.416 123.935 168.416C123.935 160.119 123.935 151.911 123.935 143.614Z" fill="#6E6E76"/>
<path d="M259.155 146.791C259.155 148.91 259.243 150.675 259.155 152.528C259.155 153.588 259.596 153.852 260.567 153.852C262.685 153.852 264.715 153.852 266.922 153.852C267.01 154.382 267.01 154.735 267.098 155.176C267.275 156.589 266.834 157.206 265.333 157.118C263.391 157.03 261.361 157.118 259.331 157.118C259.331 159.854 259.331 162.502 259.331 165.327C261.361 165.327 263.391 165.327 265.333 165.327C265.951 165.327 266.569 165.327 267.187 165.327C270.011 165.327 270.188 165.503 269.57 168.504C264.98 168.504 260.479 168.504 255.712 168.504C255.712 160.296 255.712 152.087 255.712 143.702C257.919 143.702 260.126 143.702 262.332 143.702C264.186 143.702 266.127 143.702 267.981 143.702C269.658 143.702 270.452 144.85 269.746 146.438C269.57 146.791 268.952 146.968 268.511 146.968C266.039 147.056 263.568 146.968 261.185 146.968C260.567 146.791 259.949 146.791 259.155 146.791Z" fill="#6E6E76"/>
<path d="M162.859 162.237C163.919 164.003 165.066 165.503 167.273 165.503C168.773 165.503 170.009 165.15 170.715 163.826C171.509 162.414 171.597 160.825 170.538 159.59C169.567 158.442 168.42 157.559 167.361 156.589C165.949 155.265 164.36 154.205 163.036 152.705C160.741 150.057 161.182 146.438 163.742 144.408C166.39 142.29 170.362 142.908 172.568 145.909C171.774 146.527 171.068 147.233 170.274 147.939C169.832 147.586 169.479 147.233 169.126 146.968C168.067 146.262 166.92 146.174 165.949 147.144C164.978 148.027 164.889 149.263 165.596 150.234C166.213 151.116 167.184 151.911 168.067 152.617C169.479 153.852 171.068 154.912 172.392 156.236C175.834 159.678 175.746 164.268 172.304 167.18C169.038 169.916 163.477 169.21 160.918 165.68C159.858 164.179 159.858 164.003 161.447 163.12C161.8 162.767 162.242 162.591 162.859 162.237Z" fill="#6E6E76"/>
<path d="M424.295 162.237C425.355 164.003 426.414 165.327 428.355 165.503C429.944 165.68 431.268 165.238 432.063 163.826C432.857 162.326 432.857 160.737 431.709 159.413C430.65 158.177 429.238 157.206 428.002 156.059C426.678 154.823 425.178 153.764 424.031 152.264C422.001 149.527 422.618 145.997 425.355 144.143C427.914 142.378 432.416 142.996 433.828 145.909C433.122 146.527 432.327 147.144 431.533 147.85C431.092 147.497 430.739 147.144 430.386 146.88C429.326 146.173 428.179 146.085 427.208 146.968C426.237 147.939 426.149 149.174 426.943 150.234C427.649 151.116 428.62 151.911 429.503 152.705C431.268 154.294 433.21 155.618 434.622 157.471C437.27 160.825 436.211 165.591 432.68 167.71C428.973 169.916 423.413 168.592 421.559 164.974C421.206 164.267 421.206 163.738 422.001 163.385C422.971 163.032 423.589 162.679 424.295 162.237Z" fill="#6E6E76"/>
<path d="M90.7481 143.526C90.7481 144.673 90.7481 145.644 90.7481 146.791C89.5124 146.791 88.365 146.88 87.1293 146.791C85.8054 146.703 85.5406 147.233 85.5406 148.38C85.5406 154.029 85.5406 159.766 85.5406 165.415C85.5406 168.769 85.5406 168.769 82.01 168.151C82.01 167.533 81.9218 166.915 81.9218 166.386C81.9218 160.384 81.9218 154.382 81.9218 148.38C81.9218 147.056 81.4805 146.526 80.2448 146.703C79.7152 146.791 79.1856 146.703 78.656 146.703C76.626 146.703 76.2729 146.35 76.7142 144.32C76.8025 143.967 77.3321 143.437 77.6851 143.437C81.9218 143.526 86.2467 143.526 90.7481 143.526Z" fill="#6E6E76"/>
<path d="M184.572 146.791C182.895 146.791 181.306 146.791 179.541 146.791C179.541 145.644 179.541 144.673 179.541 143.526C180.953 143.526 182.365 143.526 183.778 143.526C186.602 143.526 189.427 143.614 192.251 143.526C193.575 143.437 193.663 144.143 193.663 145.114C193.663 146.173 193.663 146.968 192.163 146.88C191.015 146.791 189.78 146.88 188.456 146.88C188.367 147.762 188.367 148.468 188.367 149.174C188.367 155.088 188.367 160.913 188.367 166.827C188.367 167.357 188.103 168.327 187.838 168.327C186.955 168.504 185.984 168.416 185.102 168.239C184.925 168.151 184.837 167.18 184.837 166.651C184.837 160.737 184.837 154.911 184.837 148.998C184.66 148.292 184.572 147.674 184.572 146.791Z" fill="#6E6E76"/>
</svg>
